<?xml version="1.0" encoding="utf-8"?>
<!-- Generator: Adobe Illustrator 25.0.1, SVG Export Plug-In . SVG Version: 6.00 Build 0)  -->
<svg version="1.1" id="Layer_1" xmlns="http://www.w3.org/2000/svg" xmlns:xlink="http://www.w3.org/1999/xlink" x="0px" y="0px"
	 viewBox="0 0 720 2160" style="enable-background:new 0 0 720 2160;" xml:space="preserve">
<style type="text/css">
	.st0{fill:#870005;}
	.st1{opacity:0.88;fill:#FFAA00;enable-background:new    ;}
	.st2{opacity:0.88;fill:#FFFFFF;enable-background:new    ;}
</style>
<rect class="st0" width="720" height="2160"/>
<path id="window" class="st1" d="M93.7,1080.4H90v-4.2h3.7V1080.4z M93.8,1084.1h-3.7v4.2h3.7V1084.1z M93.8,1092.2h-3.7v4.2h3.7
	V1092.2z M93.8,1100.3h-3.7v4.2h3.7V1100.3z M93.8,1108.4h-3.7v4.2h3.7V1108.4z M498.8,1046.9h-3.6v4.2h3.6V1046.9z M499,1054.8
	h-3.6v4.2h3.6V1054.8z M499,1062.9h-3.6v4.2h3.6V1062.9z M499,1071h-3.6v4.2h3.6V1071z M499,1079.1h-3.6v4.2h3.6V1079.1z
	 M547.2,1071.2h-3.7v4.2h3.7V1071.2z M547.4,1079.1h-3.7v4.2h3.7V1079.1z M547.4,1087.2h-3.7v4.2h3.7V1087.2z M547.4,1095.3h-3.7
	v4.2h3.7V1095.3z M547.4,1103.4h-3.7v4.2h3.7V1103.4z M409.7,1091.5H406v4.2h3.6v-4.2H409.7z M409.7,1099.6H406v4.2h3.6v-4.2H409.7z
	 M409.7,1107.7H406v4.2h3.6v-4.2H409.7z M409.7,1115.8H406v4.2h3.6v-4.2H409.7z M320.3,1075.2h-3.6v4.2h3.6V1075.2z M320.3,1083.3
	h-3.6v4.2h3.6V1083.3z M320.3,1091.4h-3.6v4.2h3.6V1091.4z M320.3,1099.5h-3.6v4.2h3.6V1099.5z M651,1111.2h-3.7v4.2h3.7V1111.2z
	 M651,1119.3h-3.7v4.2h3.7V1119.3z M184.1,1099.3h-3.6v4.2h3.6V1099.3z M184.1,1107.4h-3.6v4.2h3.6V1107.4z M296.2,1128.5h-3.6v4.2
	h3.6V1128.5z M296.2,1136.6h-3.6v4.2h3.6V1136.6z M459.4,1052.4h-3.6v4.2h3.6V1052.4z M459.5,1060.3h-3.6v4.2h3.6V1060.3z
	 M459.5,1068.4h-3.6v4.2h3.6V1068.4z M459.5,1076.5h-3.6v4.2h3.6V1076.5z M459.5,1084.6h-3.6v4.2h3.6V1084.6z M451,1025.1h-3.6v4.2
	h3.6V1025.1z M451.1,1033h-3.6v4.2h3.6V1033z M451.1,1041.1h-3.6v4.2h3.6V1041.1z M451.1,1049.2h-3.6v4.2h3.6V1049.2z M451.1,1057.3
	h-3.6v4.2h3.6V1057.3z M451,1065.3h-3.6v4.2h3.6V1065.3z M451.1,1073.2h-3.6v4.2h3.6V1073.2z M451.1,1081.3h-3.6v4.2h3.6V1081.3z
	 M451.1,1089.4h-3.6v4.2h3.6V1089.4z M451.1,1097.5h-3.6v4.2h3.6V1097.5z"/>
<g id="background">
	<g id="그룹_3">
		
			<image style="overflow:visible;opacity:0.3;enable-background:new    ;" width="750" height="1308" id="사각형_2" xlink:href="92333429.png"  transform="matrix(1.013 0 0 1.013 -14.1436 -15.2844)">
		</image>
		<g id="그룹_2">
			<g id="그룹_1">
				<path id="패스_1" class="st2" d="M723,1131.5V-6.6H-4.6V1150h59.8v-86.4l18.5-5.4h17.8l4.6,5.4v53.5h13.8l4.6,7.6h4.6v-12.2
					h4.6v-10.7h29.1v10.7l3.8,4.6v19.9l7.7-3.1l3.8,3.1v-30.6l4.6-4.6v-9.2l3.8-8.4v-7.6h6.1v-7.6h10.7v7.6h4.6v7.6l6.1,4.6v39h5.4
					v-10.7h6.9v10.7h3.8l4.6-3.1h12.2v25.2h5.4v-8.4H256v-7.6l6.9-6.1h13.8v-15.3h26.8v12.2h9.2v-61.2l10-5.4h7.7v43.6h13.8v58.9h13
					V1137H374v4.6h7.7v8.4h8.4v-13l5.4-9.2v-15.3h6.1v-35.9h23.7l5.4,16.1v48.9h7.7v-106.3l3.8-5.4v-7.6l7.7-19.1v-30.6l2.5-4.9V935
					h3.5v37.6l3.2,5v29.4l2.4,2.1l3.8,3.7v5.1l2.7,2.7v11.5l1.6,5.1v14.7h5.6v-14.7h2.1v-2l6.7-1.5l-1.3-11.5h21.2v13l3,2l1.9,104.3
					h11v-18.9l12.3-7.8h8.6l-1.3-51.3l6.2-8.1v-18.2h9.1l4.3-5.1h5.6v44.4h13.1l6.4,5.9v40.2h30l7-9.6v-10.2h22.5l1.9-7.2h12.9v35.9
					H723z"/>
			</g>
		</g>
	</g>
	<g id="그룹_4">
		<path id="패스_2" class="st2" d="M723,1131.5V-6.6H-4.6V1150h59.8v-86.4l18.5-5.4h17.8l4.6,5.4v53.5h13.8l4.6,7.6h4.6v-12.2h4.6
			v-10.7h29.1v10.7l3.8,4.6v19.9l7.7-3.1l3.8,3.1v-30.6l4.6-4.6v-9.2l3.8-8.4v-7.6h6.1v-7.6h10.7v7.6h4.6v7.6l6.1,4.6v39h5.4v-10.7
			h6.9v10.7h3.8l4.6-3.1h12.2v25.2h5.4v-8.4H256v-7.6l6.9-6.1h13.8v-15.3h26.8v12.2h9.2v-61.2l10-5.4h7.7v43.6h13.8v58.9h13V1137
			H374v4.6h7.7v8.4h8.4v-13l5.4-9.2v-15.3h6.1v-35.9h23.7l5.4,16.1v48.9h7.7v-106.3l3.8-5.4v-7.6l7.7-19.1v-30.6l2.5-4.9V935h3.5
			v37.6l3.2,5v29.4l2.4,2.1l3.8,3.7v5.1l2.7,2.7v11.5l1.6,5.1v14.7h5.6v-14.7h2.1v-2l6.7-1.5l-1.3-11.5h21.2v13l3,2l1.9,104.3h11
			v-18.9l12.3-7.8h8.6l-1.3-51.3l6.2-8.1v-18.2h9.1l4.3-5.1h5.6v44.4h13.1l6.4,5.9v40.2h30l7-9.6v-10.2h22.5l1.9-7.2h12.9v35.9H723z
			"/>
	</g>
</g>
<rect y="1261" class="st0" width="720" height="53"/>
</svg>
