<?xml version="1.0" encoding="utf-8"?>
<!-- Generator: Adobe Illustrator 25.0.1, SVG Export Plug-In . SVG Version: 6.00 Build 0)  -->
<svg version="1.1" id="Layer_1" xmlns="http://www.w3.org/2000/svg" xmlns:xlink="http://www.w3.org/1999/xlink" x="0px" y="0px"
	 viewBox="0 0 720 1280" style="enable-background:new 0 0 720 1280;" xml:space="preserve">
<style type="text/css">
	.st0{clip-path:url(#SVGID_2_);}
	.st1{opacity:0.37;fill:#4D4D4D;enable-background:new    ;}
	.st2{opacity:0.09;fill:#1B1464;enable-background:new    ;}
</style>
<g>
	<defs>
		<rect id="SVGID_1_" x="0.36" y="0.06" width="720" height="1280"/>
	</defs>
	<clipPath id="SVGID_2_">
		<use xlink:href="#SVGID_1_"  style="overflow:visible;"/>
	</clipPath>
	<g id="_00_main" class="st0">
		<g id="Main_component" transform="translate(0.651)">
			<path id="snowflake2" class="st1" d="M88.53,466.31c0-0.59-0.48-1.07-1.07-1.07c0,0,0,0,0,0h-1.68l1.6-1.61
				c0.44-0.4,0.47-1.07,0.07-1.51c-0.4-0.44-1.07-0.47-1.51-0.07c-0.02,0.02-0.05,0.05-0.07,0.07l-3.12,3.12h-1.59l1.61-1.61
				c0.42-0.41,0.44-1.09,0.03-1.51s-1.09-0.44-1.51-0.03c-0.01,0.01-0.02,0.02-0.03,0.03l-3.12,3.12H70.7l5.25-5.25h4.41
				c0.59,0,1.07-0.48,1.07-1.07c0-0.59-0.48-1.07-1.07-1.07h-2.27l1.12-1.12h4.41c0.59,0,1.07-0.48,1.07-1.07
				c0-0.59-0.48-1.07-1.07-1.07h-2.27l1.19-1.19c0.42-0.41,0.44-1.09,0.03-1.51s-1.09-0.44-1.51-0.03
				c-0.01,0.01-0.02,0.02-0.03,0.03l-1.19,1.19v-2.27c0-0.59-0.48-1.07-1.07-1.07s-1.07,0.48-1.07,1.07c0,0,0,0,0,0v4.41l-1.12,1.12
				v-2.27c0-0.59-0.48-1.07-1.07-1.07c-0.59,0-1.07,0.48-1.07,1.07v4.41l-5.25,5.25v-7.43l3.12-3.12c0.42-0.41,0.44-1.09,0.03-1.51
				s-1.09-0.44-1.51-0.03c-0.01,0.01-0.02,0.02-0.03,0.03l-1.61,1.61v-1.58l3.12-3.12c0.42-0.41,0.44-1.09,0.03-1.51
				s-1.09-0.44-1.51-0.03c-0.01,0.01-0.02,0.02-0.03,0.03l-1.61,1.61v-1.68c0-0.59-0.48-1.07-1.07-1.07c-0.59,0-1.07,0.48-1.07,1.07
				v1.68l-1.61-1.61c-0.41-0.42-1.09-0.44-1.51-0.03c-0.42,0.41-0.44,1.09-0.03,1.51c0.01,0.01,0.02,0.02,0.03,0.03l3.12,3.12v1.58
				l-1.61-1.61c-0.41-0.42-1.09-0.44-1.51-0.03c-0.42,0.41-0.44,1.09-0.03,1.51c0.01,0.01,0.02,0.02,0.03,0.03l3.12,3.12v7.43
				l-5.25-5.26v-4.41c-0.02-0.59-0.51-1.06-1.11-1.04c-0.57,0.02-1.02,0.47-1.04,1.04v2.27l-1.12-1.12v-4.41
				c0-0.59-0.48-1.07-1.07-1.07c-0.59,0-1.07,0.48-1.07,1.07v2.27l-1.19-1.19c-0.41-0.42-1.09-0.44-1.51-0.03
				c-0.42,0.41-0.44,1.09-0.03,1.51c0.01,0.01,0.02,0.02,0.03,0.03l1.19,1.19h-2.27c-0.59,0-1.07,0.48-1.07,1.07
				c0,0.59,0.48,1.07,1.07,1.07H57l1.12,1.12h-2.27c-0.59,0-1.07,0.48-1.07,1.07c0,0.59,0.48,1.07,1.07,1.07h4.41l5.25,5.25H58.1
				l-3.12-3.12c-0.41-0.42-1.09-0.44-1.51-0.03c-0.42,0.41-0.44,1.09-0.03,1.51c0.01,0.01,0.02,0.02,0.03,0.03l1.6,1.61h-1.58
				l-3.12-3.12c-0.41-0.42-1.09-0.44-1.51-0.03c-0.42,0.41-0.44,1.09-0.03,1.51c0.01,0.01,0.02,0.02,0.03,0.03l1.6,1.61h-1.68
				c-0.59,0-1.07,0.48-1.07,1.07c0,0.59,0.48,1.07,1.07,1.07h1.68l-1.6,1.61c-0.42,0.41-0.44,1.09-0.03,1.51s1.09,0.44,1.51,0.03
				c0.01-0.01,0.02-0.02,0.03-0.03l3.12-3.12h1.58l-1.6,1.61c-0.42,0.41-0.44,1.09-0.03,1.51s1.09,0.44,1.51,0.03
				c0.01-0.01,0.02-0.02,0.03-0.03l3.12-3.12h7.43l-5.25,5.25h-4.42c-0.59,0-1.07,0.48-1.07,1.07c0,0.59,0.48,1.07,1.07,1.07h2.27
				l-1.12,1.12h-4.41c-0.59,0-1.07,0.48-1.07,1.07c0,0.59,0.48,1.07,1.07,1.07h2.27l-1.19,1.19c-0.42,0.42-0.42,1.1,0.01,1.52
				c0.2,0.2,0.47,0.31,0.75,0.31c0.28,0,0.56-0.11,0.76-0.32l1.19-1.19v2.27c0.02,0.59,0.51,1.06,1.11,1.04
				c0.57-0.02,1.02-0.47,1.04-1.04v-4.41l1.12-1.12v2.27c0,0.59,0.48,1.07,1.07,1.07c0.59,0,1.07-0.48,1.07-1.07v-4.41l5.25-5.25
				v7.43l-3.12,3.12c-0.41,0.42-0.4,1.1,0.03,1.51c0.41,0.4,1.07,0.4,1.49,0l1.61-1.6v1.58l-3.12,3.12
				c-0.42,0.41-0.44,1.09-0.03,1.51c0.41,0.42,1.09,0.44,1.51,0.03c0.01-0.01,0.02-0.02,0.03-0.03l1.61-1.61v1.68
				c0,0.59,0.48,1.07,1.07,1.07c0.59,0,1.07-0.48,1.07-1.07v-1.68l1.61,1.61c0.42,0.41,1.1,0.4,1.51-0.03c0.4-0.41,0.4-1.07,0-1.49
				l-3.14-3.13v-1.58l1.61,1.61c0.2,0.2,0.47,0.31,0.76,0.32c0.28,0,0.56-0.11,0.76-0.32c0.42-0.42,0.42-1.09,0-1.51c0,0,0,0,0,0
				l-3.12-3.12v-7.43l5.25,5.25v4.41c0,0.59,0.48,1.07,1.07,1.07c0.59,0,1.07-0.48,1.07-1.07v-2.27l1.12,1.12v4.41
				c0.02,0.59,0.51,1.06,1.11,1.04c0.57-0.02,1.02-0.47,1.04-1.04v-2.27l1.19,1.19c0.2,0.2,0.47,0.31,0.76,0.32
				c0.28,0,0.56-0.11,0.76-0.32c0.42-0.42,0.42-1.09,0-1.51c0,0,0,0,0,0l-1.19-1.19h2.27c0.59-0.02,1.06-0.51,1.04-1.11
				c-0.02-0.57-0.47-1.02-1.04-1.04h-4.41l-1.12-1.12h2.26c0.59,0,1.07-0.48,1.07-1.07c0-0.59-0.48-1.07-1.07-1.07h-4.4l-5.25-5.25
				h7.43l3.12,3.12c0.2,0.2,0.47,0.31,0.76,0.32c0.28,0,0.56-0.11,0.76-0.32c0.42-0.42,0.42-1.09,0-1.51c0,0,0,0,0,0l-1.6-1.61h1.58
				l3.12,3.12c0.2,0.2,0.47,0.31,0.76,0.32c0.28,0,0.56-0.11,0.76-0.32c0.42-0.42,0.42-1.09,0-1.51c0,0,0,0,0,0l-1.6-1.61h1.68
				C88.05,467.37,88.53,466.89,88.53,466.31z M288.6,238.97c0-0.28-0.23-0.51-0.5-0.51c0,0,0,0,0,0h-0.8l0.76-0.76
				c0.2-0.2,0.2-0.52,0-0.72s-0.52-0.2-0.72,0l-1.48,1.48h-0.75l0.76-0.76c0.2-0.2,0.2-0.52,0-0.72s-0.52-0.2-0.72,0l-1.48,1.48
				h-3.53l2.49-2.49h2.1c0.28,0,0.51-0.22,0.51-0.5c0-0.28-0.22-0.51-0.5-0.51c0,0,0,0,0,0h-1.08l0.53-0.53h2.1
				c0.28,0,0.51-0.23,0.5-0.51c0-0.28-0.23-0.5-0.5-0.5h-1.08l0.57-0.57c0.2-0.2,0.2-0.52,0-0.72c-0.2-0.2-0.52-0.2-0.72,0
				l-0.57,0.57v-1.08c0-0.28-0.22-0.51-0.5-0.51s-0.51,0.22-0.51,0.5c0,0,0,0,0,0v2.1l-0.53,0.53v-1.08c0-0.28-0.22-0.51-0.5-0.51
				s-0.51,0.22-0.51,0.5c0,0,0,0,0,0v2.1l-2.49,2.49v-3.53l1.48-1.48c0.2-0.2,0.2-0.52,0-0.72c-0.2-0.2-0.52-0.2-0.72,0l-0.76,0.76
				v-0.75l1.48-1.48c0.2-0.2,0.2-0.52,0-0.72c-0.2-0.2-0.52-0.2-0.72,0l-0.76,0.76v-0.8c0-0.28-0.22-0.51-0.5-0.51
				s-0.51,0.22-0.51,0.5c0,0,0,0,0,0v0.8l-0.76-0.76c-0.19-0.21-0.51-0.22-0.72-0.02c-0.21,0.19-0.22,0.51-0.02,0.72
				c0.01,0.01,0.02,0.02,0.02,0.02l1.48,1.48v0.75l-0.76-0.76c-0.21-0.19-0.53-0.18-0.72,0.02c-0.18,0.2-0.18,0.5,0,0.69l1.48,1.48
				v3.52l-2.49-2.49v-2.1c0-0.28-0.22-0.51-0.5-0.51s-0.51,0.22-0.51,0.5c0,0,0,0,0,0v1.08l-0.53-0.53v-2.1
				c-0.01-0.28-0.25-0.5-0.53-0.48c-0.26,0.01-0.47,0.22-0.48,0.48v1.08l-0.57-0.57c-0.19-0.21-0.51-0.22-0.72-0.02
				c-0.21,0.19-0.22,0.51-0.02,0.72c0.01,0.01,0.02,0.02,0.02,0.02l0.57,0.57h-1.08c-0.28,0-0.51,0.23-0.5,0.51
				c0,0.28,0.23,0.5,0.5,0.5h2.1l0.53,0.53h-1.08c-0.28,0-0.51,0.22-0.51,0.5c0,0.28,0.22,0.51,0.5,0.51c0,0,0,0,0,0h2.1l2.49,2.49
				h-3.53l-1.48-1.48c-0.2-0.2-0.52-0.2-0.72,0c-0.2,0.2-0.2,0.52,0,0.72l0,0l0.76,0.76h-0.75l-1.48-1.48c-0.2-0.2-0.52-0.2-0.72,0
				c-0.2,0.2-0.2,0.52,0,0.72l0.76,0.76h-0.8c-0.28,0-0.51,0.22-0.51,0.5c0,0.28,0.22,0.51,0.5,0.51c0,0,0,0,0,0h0.8l-0.76,0.76
				c-0.2,0.2-0.2,0.52,0,0.72c0.1,0.1,0.23,0.15,0.36,0.15c0.13,0,0.26-0.05,0.36-0.15l1.48-1.48h0.75l-0.76,0.76
				c-0.2,0.2-0.2,0.52,0,0.72c0.2,0.2,0.52,0.2,0.72,0l1.48-1.48h3.53l-2.49,2.49h-2.1c-0.28,0-0.51,0.22-0.51,0.5
				c0,0.28,0.22,0.51,0.5,0.51c0,0,0,0,0,0h1.08l-0.53,0.53h-2.1c-0.28,0-0.51,0.23-0.5,0.51c0,0.28,0.23,0.5,0.5,0.5h1.08
				l-0.57,0.57c-0.2,0.2-0.2,0.52,0,0.72c0.1,0.1,0.23,0.15,0.36,0.15c0.13,0,0.26-0.05,0.36-0.15l0.57-0.57v1.08
				c0.01,0.28,0.25,0.5,0.53,0.48c0.26-0.01,0.47-0.22,0.48-0.48v-2.1l0.53-0.53v1.08c0,0.28,0.22,0.51,0.5,0.51s0.51-0.22,0.51-0.5
				c0,0,0,0,0,0v-2.1l2.49-2.49v3.53l-1.48,1.48c-0.19,0.21-0.18,0.53,0.02,0.72c0.2,0.18,0.5,0.18,0.69,0l0.76-0.76v0.75
				l-1.48,1.48c-0.2,0.2-0.2,0.52,0,0.72c0.2,0.2,0.52,0.2,0.72,0l0.76-0.76v0.8c0,0.28,0.22,0.51,0.5,0.51s0.51-0.22,0.51-0.5
				c0,0,0,0,0,0v-0.8l0.76,0.76c0.2,0.2,0.52,0.2,0.72,0c0.2-0.2,0.2-0.52,0-0.72l-1.48-1.48v-0.75l0.76,0.76
				c0.2,0.2,0.52,0.2,0.72,0c0.2-0.2,0.2-0.52,0-0.72l-1.48-1.48v-3.53l2.49,2.49v2.1c0,0.28,0.22,0.51,0.5,0.51s0.51-0.22,0.51-0.5
				c0,0,0,0,0,0v-1.08l0.53,0.53v2.1c0,0.28,0.22,0.51,0.5,0.51s0.51-0.22,0.51-0.5c0,0,0,0,0,0v-1.08l0.57,0.57
				c0.2,0.2,0.52,0.2,0.72,0c0.2-0.2,0.2-0.52,0-0.72l-0.57-0.57h1.08c0.28,0,0.51-0.23,0.5-0.51c0-0.28-0.23-0.5-0.5-0.5h-2.1
				l-0.53-0.53h1.08c0.28,0,0.51-0.22,0.51-0.5c0-0.28-0.22-0.51-0.5-0.51c0,0,0,0,0,0h-2.1l-2.49-2.49h3.53l1.48,1.48
				c0.2,0.2,0.52,0.2,0.72,0s0.2-0.52,0-0.72l-0.76-0.76h0.75l1.48,1.48c0.2,0.2,0.52,0.2,0.72,0c0.19-0.2,0.19-0.52,0-0.72
				l-0.76-0.76h0.8C288.37,239.47,288.6,239.25,288.6,238.97C288.6,238.97,288.6,238.97,288.6,238.97z M227.45,907.49
				c0-0.63-0.51-1.14-1.14-1.14c0,0,0,0,0,0h-1.8l1.71-1.71c0.45-0.44,0.46-1.17,0.02-1.62c-0.44-0.45-1.17-0.46-1.62-0.02
				c-0.01,0.01-0.01,0.01-0.02,0.02l-3.34,3.34h-1.7l1.71-1.71c0.45-0.44,0.46-1.17,0.02-1.62c-0.44-0.45-1.17-0.46-1.62-0.02
				c-0.01,0.01-0.01,0.01-0.02,0.02l-3.34,3.34h-7.96l5.62-5.62h4.72c0.63,0,1.14-0.51,1.14-1.14s-0.51-1.14-1.14-1.14h-2.43
				l1.2-1.2h4.72c0.63,0,1.14-0.51,1.14-1.14s-0.51-1.14-1.14-1.14h-2.43l1.27-1.27c0.45-0.44,0.46-1.17,0.02-1.62
				c-0.44-0.45-1.17-0.46-1.62-0.02c-0.01,0.01-0.01,0.01-0.02,0.02l-1.27,1.27v-2.43c0.02-0.63-0.48-1.16-1.11-1.18
				c-0.63-0.02-1.16,0.48-1.18,1.11c0,0.02,0,0.05,0,0.07v4.72l-1.2,1.2v-2.43c0-0.63-0.51-1.14-1.14-1.15
				c-0.63,0-1.14,0.51-1.15,1.14c0,0,0,0,0,0v4.72l-5.62,5.62v-7.95l3.34-3.34c0.44-0.45,0.43-1.18-0.02-1.62
				c-0.45-0.44-1.16-0.44-1.6,0l-1.71,1.72v-1.7l3.34-3.34c0.44-0.46,0.41-1.19-0.05-1.62c-0.44-0.42-1.13-0.42-1.58,0l-1.71,1.71
				v-1.8c0-0.63-0.51-1.14-1.15-1.14c-0.63,0-1.14,0.51-1.14,1.14v1.8l-1.71-1.71c-0.46-0.44-1.19-0.42-1.62,0.04
				c-0.42,0.44-0.42,1.13,0,1.58l3.34,3.34v1.7l-1.71-1.72c-0.45-0.44-1.18-0.43-1.62,0.02c-0.44,0.45-0.44,1.16,0,1.6l3.34,3.34
				v7.95l-5.62-5.62v-4.72c0-0.63-0.51-1.14-1.14-1.15c-0.63,0-1.14,0.51-1.15,1.14c0,0,0,0,0,0v2.43l-1.2-1.2v-4.72
				c0-0.63-0.51-1.14-1.14-1.15c-0.63,0-1.14,0.51-1.15,1.14c0,0,0,0,0,0v2.43l-1.27-1.27c-0.44-0.45-1.17-0.46-1.62-0.02
				c-0.45,0.44-0.46,1.17-0.02,1.62c0.01,0.01,0.01,0.01,0.02,0.02l1.27,1.27h-2.43c-0.63,0-1.14,0.51-1.14,1.14
				s0.51,1.14,1.14,1.14h4.72l1.2,1.2h-2.43c-0.63,0-1.14,0.51-1.14,1.14s0.51,1.14,1.14,1.14h4.72l5.63,5.62h-7.95l-3.34-3.34
				c-0.44-0.45-1.17-0.46-1.62-0.02c-0.45,0.44-0.46,1.17-0.02,1.62c0.01,0.01,0.01,0.01,0.02,0.02l1.71,1.71h-1.7l-3.34-3.34
				c-0.44-0.45-1.17-0.46-1.62-0.02c-0.45,0.44-0.46,1.17-0.02,1.62c0.01,0.01,0.01,0.01,0.02,0.02l1.71,1.71h-1.8
				c-0.63,0-1.14,0.51-1.14,1.14s0.51,1.14,1.14,1.14h1.8l-1.71,1.71c-0.45,0.44-0.46,1.17-0.02,1.62c0.44,0.45,1.17,0.46,1.62,0.02
				c0.01-0.01,0.01-0.01,0.02-0.02l3.34-3.34h1.7l-1.71,1.71c-0.45,0.44-0.46,1.17-0.02,1.62c0.44,0.45,1.17,0.46,1.62,0.02
				c0.01-0.01,0.01-0.01,0.02-0.02l3.34-3.34h7.96l-5.62,5.62h-4.72c-0.63,0-1.14,0.51-1.14,1.14s0.51,1.14,1.14,1.14h2.43l-1.2,1.2
				h-4.72c-0.63,0-1.14,0.51-1.14,1.14s0.51,1.14,1.14,1.14h2.43l-1.27,1.27c-0.45,0.44-0.46,1.17-0.02,1.62
				c0.44,0.45,1.17,0.46,1.62,0.02c0.01-0.01,0.01-0.01,0.02-0.02l1.27-1.27v2.43c0,0.63,0.51,1.14,1.15,1.14
				c0.63,0,1.14-0.51,1.14-1.14v-4.73l1.2-1.2v2.43c0,0.63,0.51,1.14,1.14,1.15c0.63,0,1.14-0.51,1.15-1.14c0,0,0,0,0,0v-4.72
				l5.62-5.62v7.95l-3.34,3.34c-0.44,0.45-0.43,1.18,0.02,1.62c0.45,0.44,1.16,0.44,1.6,0l1.71-1.72v1.7l-3.34,3.34
				c-0.45,0.44-0.46,1.17-0.02,1.62c0.44,0.45,1.17,0.46,1.62,0.02c0.01-0.01,0.01-0.01,0.02-0.02l1.71-1.72v1.8
				c0,0.63,0.51,1.14,1.15,1.14c0.63,0,1.14-0.51,1.14-1.14v-1.8l1.71,1.72c0.44,0.45,1.17,0.46,1.62,0.02
				c0.45-0.44,0.46-1.17,0.02-1.62c-0.01-0.01-0.01-0.01-0.02-0.02l-3.34-3.34v-1.7l1.71,1.72c0.44,0.45,1.17,0.46,1.62,0.02
				c0.45-0.44,0.46-1.17,0.02-1.62c-0.01-0.01-0.01-0.01-0.02-0.02l-3.34-3.34v-7.95l5.62,5.62v4.72c0,0.63,0.51,1.14,1.14,1.15
				c0.63,0,1.14-0.51,1.15-1.14c0,0,0,0,0,0v-2.43l1.2,1.2v4.72c0,0.63,0.51,1.14,1.15,1.14c0.63,0,1.14-0.51,1.14-1.14v-2.43
				l1.27,1.27c0.44,0.45,1.17,0.46,1.62,0.02c0.45-0.44,0.46-1.17,0.02-1.62c-0.01-0.01-0.01-0.01-0.02-0.02l-1.27-1.27h2.43
				c0.63,0,1.14-0.51,1.14-1.14s-0.51-1.14-1.14-1.14h-4.72l-1.2-1.2h2.43c0.63,0,1.14-0.51,1.14-1.14s-0.51-1.14-1.14-1.14h-4.72
				l-5.63-5.61h7.95l3.34,3.34c0.44,0.45,1.17,0.46,1.62,0.02c0.45-0.44,0.46-1.17,0.02-1.62c-0.01-0.01-0.01-0.01-0.02-0.02
				l-1.71-1.71h1.7l3.34,3.34c0.44,0.45,1.17,0.46,1.62,0.02c0.45-0.44,0.46-1.17,0.02-1.62c-0.01-0.01-0.01-0.01-0.02-0.02
				l-1.71-1.71h1.8c0.63,0.01,1.14-0.5,1.15-1.12C227.45,907.51,227.45,907.5,227.45,907.49z M593.6,880.59
				c0-0.42-0.34-0.76-0.76-0.76h-1.2l1.14-1.14c0.29-0.31,0.27-0.79-0.04-1.08c-0.29-0.27-0.75-0.27-1.04,0l-2.22,2.22h-1.13
				l1.14-1.14c0.31-0.29,0.32-0.77,0.04-1.08c-0.29-0.31-0.77-0.32-1.08-0.04c-0.01,0.01-0.02,0.02-0.04,0.04l-2.22,2.22h-5.29
				l3.74-3.74h3.14c0.42,0,0.76-0.34,0.76-0.77c0-0.42-0.34-0.76-0.76-0.76h-1.62l0.8-0.8h3.14c0.42,0,0.76-0.34,0.77-0.76
				c0-0.42-0.34-0.76-0.76-0.77c0,0,0,0-0.01,0h-1.62l0.85-0.85c0.29-0.3,0.29-0.78-0.02-1.08c-0.3-0.29-0.77-0.29-1.06,0
				l-0.85,0.85v-1.62c0-0.42-0.34-0.76-0.77-0.76c-0.42,0-0.76,0.34-0.76,0.76v3.14l-0.8,0.8v-1.62c0-0.42-0.34-0.76-0.76-0.77
				c-0.42,0-0.76,0.34-0.77,0.76c0,0,0,0,0,0.01v3.14l-3.74,3.74v-5.29l2.22-2.22c0.3-0.3,0.3-0.78,0-1.08s-0.78-0.3-1.08,0
				l-1.14,1.14v-1.13l2.22-2.22c0.3-0.3,0.3-0.78,0-1.08s-0.78-0.3-1.08,0l-1.14,1.14v-1.2c0-0.42-0.34-0.76-0.77-0.76
				c-0.42,0-0.76,0.34-0.76,0.76v1.2l-1.14-1.14c-0.29-0.3-0.78-0.31-1.08-0.02s-0.31,0.78-0.02,1.08c0.01,0.01,0.01,0.01,0.02,0.02
				l2.22,2.22v1.13l-1.14-1.14c-0.29-0.3-0.78-0.31-1.08-0.02s-0.31,0.78-0.02,1.08c0.01,0.01,0.01,0.01,0.02,0.02l2.22,2.22v5.29
				l-3.74-3.74v-3.14c0-0.42-0.34-0.76-0.76-0.77c-0.42,0-0.76,0.34-0.77,0.76c0,0,0,0,0,0.01v1.62l-0.8-0.8v-3.14
				c0-0.42-0.34-0.76-0.77-0.76c-0.42,0-0.76,0.34-0.76,0.76v1.62l-0.85-0.85c-0.31-0.29-0.79-0.27-1.08,0.04
				c-0.27,0.29-0.27,0.75,0,1.04l0.85,0.85h-1.62c-0.42,0-0.76,0.34-0.76,0.77c0,0.42,0.34,0.76,0.76,0.76h3.14l0.8,0.8h-1.62
				c-0.42,0-0.76,0.34-0.77,0.76c0,0.42,0.34,0.76,0.76,0.77c0,0,0,0,0.01,0h3.14l3.74,3.74h-5.29l-2.22-2.22
				c-0.3-0.29-0.78-0.29-1.08,0.02c-0.29,0.3-0.29,0.77,0,1.06l1.14,1.14h-1.12l-2.22-2.22c-0.31-0.28-0.79-0.26-1.08,0.05
				c-0.27,0.29-0.27,0.73,0,1.03l1.14,1.14h-1.2c-0.42,0-0.76,0.34-0.76,0.77c0,0.42,0.34,0.76,0.76,0.76h1.2l-1.14,1.14
				c-0.3,0.29-0.31,0.78-0.02,1.08s0.78,0.31,1.08,0.02c0.01-0.01,0.01-0.01,0.02-0.02l2.22-2.22h1.13l-1.14,1.14
				c-0.3,0.3-0.3,0.78,0,1.08s0.78,0.3,1.08,0l0,0l2.22-2.22h5.29l-3.74,3.74h-3.14c-0.42,0-0.76,0.34-0.77,0.76
				c0,0.42,0.34,0.76,0.76,0.77c0,0,0,0,0.01,0h1.62l-0.8,0.8h-3.14c-0.42,0-0.76,0.34-0.76,0.77c0,0.42,0.34,0.76,0.76,0.76h1.62
				l-0.85,0.85c-0.3,0.29-0.31,0.78-0.02,1.08s0.78,0.31,1.08,0.02c0.01-0.01,0.01-0.01,0.02-0.02l0.85-0.85v1.62
				c0,0.42,0.34,0.76,0.76,0.77c0.42,0,0.76-0.34,0.77-0.76c0,0,0,0,0-0.01v-3.14l0.8-0.8v1.62c0,0.42,0.34,0.76,0.76,0.77
				c0.42,0,0.76-0.34,0.77-0.76c0,0,0,0,0-0.01v-3.14l3.74-3.74v5.29l-2.22,2.22c-0.29,0.31-0.27,0.79,0.04,1.08
				c0.29,0.27,0.75,0.27,1.04,0l1.14-1.14v1.13l-2.22,2.22c-0.3,0.29-0.31,0.78-0.02,1.08s0.78,0.31,1.08,0.02
				c0.01-0.01,0.01-0.01,0.02-0.02l1.14-1.14v1.2c0,0.42,0.34,0.76,0.76,0.77c0.42,0,0.76-0.34,0.77-0.76c0,0,0,0,0-0.01v-1.2
				l1.14,1.14c0.3,0.3,0.78,0.3,1.08,0s0.3-0.78,0-1.08l0,0l-2.22-2.22v-1.13l1.14,1.14c0.29,0.3,0.78,0.31,1.08,0.02
				s0.31-0.78,0.02-1.08c-0.01-0.01-0.01-0.01-0.02-0.02l-2.22-2.22v-5.29l3.74,3.74v3.14c0,0.42,0.34,0.76,0.76,0.77
				c0.42,0,0.76-0.34,0.77-0.76c0,0,0,0,0-0.01v-1.62l0.8,0.8v3.14c0,0.42,0.34,0.76,0.77,0.76c0.42,0,0.76-0.34,0.76-0.76v-1.62
				l0.85,0.85c0.3,0.3,0.78,0.3,1.08,0s0.3-0.78,0-1.08l0,0l-0.85-0.85h1.62c0.42,0,0.76-0.34,0.77-0.76c0-0.42-0.34-0.76-0.76-0.77
				c0,0,0,0-0.01,0h-3.14l-0.8-0.8h1.62c0.42,0,0.76-0.34,0.76-0.77c0-0.42-0.34-0.76-0.76-0.76h-3.14l-3.74-3.74h5.29l2.22,2.22
				c0.29,0.3,0.78,0.31,1.08,0.02s0.31-0.78,0.02-1.08c-0.01-0.01-0.01-0.01-0.02-0.02l-1.14-1.14h1.13l2.22,2.22
				c0.3,0.29,0.78,0.29,1.08-0.02c0.29-0.3,0.29-0.77,0-1.06l-1.14-1.14h1.2C593.26,881.35,593.6,881.01,593.6,880.59L593.6,880.59z
				 M654.56,279.63c0-0.59-0.48-1.07-1.07-1.07c0,0,0,0,0,0h-1.68l1.6-1.61c0.41-0.42,0.4-1.1-0.03-1.51c-0.41-0.4-1.07-0.4-1.49,0
				l-3.12,3.12h-1.59l1.61-1.61c0.41-0.42,0.4-1.1-0.03-1.51c-0.41-0.4-1.07-0.4-1.49,0l-3.11,3.12h-7.43l5.25-5.25h4.41
				c0.59,0,1.07-0.48,1.07-1.07c0-0.59-0.48-1.07-1.07-1.07h-2.27l1.12-1.12h4.41c0.59,0,1.07-0.48,1.07-1.07
				c0-0.59-0.48-1.07-1.07-1.07h-2.27l1.19-1.19c0.41-0.42,0.4-1.1-0.03-1.51c-0.41-0.4-1.07-0.4-1.49,0l-1.19,1.19v-2.27
				c0-0.59-0.48-1.07-1.08-1.07c-0.59,0-1.07,0.48-1.07,1.07v4.41l-1.12,1.12v-2.27c-0.02-0.59-0.51-1.06-1.1-1.04
				c-0.57,0.02-1.02,0.47-1.04,1.04v4.41l-5.25,5.25v-7.43l3.12-3.12c0.41-0.42,0.4-1.1-0.03-1.51c-0.41-0.4-1.07-0.4-1.49,0
				l-1.61,1.61v-1.58l3.12-3.12c0.41-0.42,0.4-1.1-0.03-1.51c-0.41-0.4-1.07-0.4-1.49,0l-1.61,1.61v-1.68
				c0-0.59-0.48-1.07-1.07-1.08c-0.59,0-1.07,0.48-1.08,1.07c0,0,0,0.01,0,0.01v1.68l-1.61-1.61c-0.42-0.41-1.1-0.4-1.51,0.03
				c-0.4,0.41-0.4,1.07,0,1.49l3.12,3.12v1.58l-1.61-1.61c-0.42-0.41-1.1-0.4-1.51,0.03c-0.4,0.41-0.4,1.07,0,1.49l3.12,3.12v7.43
				l-5.25-5.25v-4.41c0-0.59-0.48-1.07-1.07-1.07s-1.07,0.48-1.07,1.07v2.27l-1.12-1.12v-4.41c0-0.59-0.48-1.07-1.07-1.08
				c-0.59,0-1.07,0.48-1.08,1.07c0,0,0,0.01,0,0.01v2.27l-1.19-1.19c-0.42-0.41-1.1-0.4-1.51,0.03c-0.4,0.41-0.4,1.07,0,1.49
				l1.19,1.19h-2.27c-0.59,0-1.07,0.48-1.07,1.07c0,0.59,0.48,1.07,1.07,1.07h4.41l1.12,1.12h-2.27c-0.59,0-1.07,0.48-1.07,1.07
				c0,0.59,0.48,1.07,1.07,1.07h4.41l5.25,5.25h-7.43l-3.12-3.12c-0.42-0.41-1.1-0.4-1.51,0.03c-0.4,0.41-0.4,1.07,0,1.49l1.61,1.61
				h-1.58l-3.12-3.12c-0.42-0.41-1.1-0.4-1.51,0.03c-0.4,0.41-0.4,1.07,0,1.49l1.61,1.61h-1.68c-0.59,0-1.07,0.48-1.07,1.07
				c0,0.59,0.48,1.07,1.07,1.07h1.68l-1.61,1.61c-0.42,0.42-0.42,1.1,0.01,1.52c0.2,0.2,0.47,0.31,0.75,0.31
				c0.28,0,0.56-0.11,0.76-0.32l3.12-3.12h1.58l-1.61,1.61c-0.42,0.42-0.42,1.1,0.01,1.52c0.2,0.2,0.47,0.31,0.75,0.31
				c0.28,0,0.56-0.11,0.76-0.32l3.12-3.12h7.43l-5.25,5.25h-4.41c-0.59,0-1.07,0.48-1.07,1.07c0,0.59,0.48,1.07,1.07,1.07h2.27
				l-1.12,1.12h-4.41c-0.59,0-1.07,0.48-1.07,1.07c0,0.59,0.48,1.07,1.07,1.07h2.27l-1.19,1.19c-0.42,0.42-0.42,1.1,0.01,1.52
				c0.2,0.2,0.47,0.31,0.75,0.31c0.28,0,0.56-0.11,0.76-0.32l1.19-1.19v2.27c0,0.59,0.48,1.07,1.07,1.08c0.59,0,1.07-0.48,1.08-1.07
				c0,0,0-0.01,0-0.01v-4.41l1.12-1.12v2.27c0,0.59,0.48,1.07,1.07,1.07s1.07-0.48,1.07-1.07v-4.41l5.25-5.25v7.43l-3.12,3.12
				c-0.41,0.42-0.4,1.1,0.03,1.51c0.41,0.4,1.07,0.4,1.49,0l1.61-1.61v1.57l-3.12,3.12c-0.42,0.42-0.42,1.1,0.01,1.52
				c0.2,0.2,0.47,0.31,0.75,0.31c0.28,0,0.56-0.11,0.76-0.32l1.61-1.61v1.68c0,0.59,0.48,1.07,1.07,1.08c0.59,0,1.07-0.48,1.08-1.07
				c0,0,0-0.01,0-0.01v-1.68l1.61,1.61c0.42,0.41,1.1,0.4,1.51-0.03c0.4-0.41,0.4-1.07,0-1.49l-3.12-3.12v-1.58l1.61,1.61
				c0.2,0.2,0.47,0.31,0.76,0.32c0.59,0,1.07-0.48,1.07-1.08c0-0.28-0.11-0.55-0.31-0.75l-3.12-3.12v-7.43l5.25,5.25v4.41
				c0.02,0.59,0.51,1.06,1.1,1.04c0.57-0.02,1.02-0.47,1.04-1.04v-2.27l1.12,1.12v4.41c0,0.59,0.48,1.07,1.08,1.07
				c0.59,0,1.07-0.48,1.07-1.07v-2.27l1.19,1.19c0.2,0.2,0.47,0.31,0.76,0.32c0.28,0,0.56-0.11,0.76-0.32
				c0.42-0.42,0.42-1.09,0-1.51c0,0,0,0,0,0l-1.19-1.19h2.27c0.59,0,1.07-0.48,1.07-1.07c0-0.59-0.48-1.07-1.07-1.07l0,0h-4.41
				l-1.12-1.12h2.27c0.59,0,1.07-0.48,1.07-1.07c0-0.59-0.48-1.07-1.07-1.07l0,0h-4.41l-5.25-5.25h7.43l3.12,3.12
				c0.2,0.2,0.47,0.31,0.76,0.32c0.59,0,1.07-0.48,1.07-1.08c0-0.28-0.11-0.55-0.31-0.75l-1.61-1.61h1.58l3.12,3.12
				c0.2,0.2,0.47,0.31,0.76,0.32c0.59,0,1.07-0.48,1.07-1.08c0-0.28-0.11-0.55-0.31-0.75l-1.61-1.61h1.68
				C654.07,280.69,654.55,280.22,654.56,279.63z M622.99,342.76c0-0.26-0.21-0.47-0.47-0.47h-0.74l0.71-0.71
				c0.19-0.18,0.21-0.47,0.03-0.66s-0.47-0.21-0.66-0.03c-0.01,0.01-0.02,0.02-0.03,0.03l-1.37,1.37h-0.7l0.71-0.71
				c0.19-0.18,0.21-0.47,0.03-0.66s-0.47-0.21-0.66-0.03c-0.01,0.01-0.02,0.02-0.03,0.03l-1.37,1.37h-3.27l2.31-2.31h1.94
				c0.26,0,0.47-0.21,0.47-0.47c0-0.26-0.21-0.47-0.47-0.47h-1l0.49-0.5h1.94c0.26,0,0.47-0.21,0.47-0.47
				c0-0.26-0.21-0.47-0.47-0.47h-1l0.52-0.52c0.18-0.19,0.16-0.49-0.03-0.66c-0.18-0.16-0.45-0.16-0.63,0l-0.52,0.52v-1
				c-0.01-0.26-0.23-0.46-0.5-0.45c-0.24,0.01-0.44,0.21-0.45,0.45v1.94l-0.49,0.49v-1c-0.01-0.26-0.23-0.46-0.5-0.45
				c-0.24,0.01-0.44,0.21-0.45,0.45v1.94l-2.31,2.31v-3.27l1.37-1.37c0.18-0.19,0.16-0.49-0.03-0.66c-0.18-0.16-0.45-0.16-0.63,0
				l-0.71,0.71v-0.7l1.37-1.37c0.18-0.19,0.16-0.49-0.03-0.66c-0.18-0.16-0.45-0.16-0.63,0l-0.71,0.71v-0.74
				c0-0.26-0.21-0.47-0.47-0.47s-0.47,0.21-0.47,0.47v0.74l-0.71-0.71c-0.19-0.18-0.49-0.16-0.66,0.03c-0.16,0.18-0.16,0.45,0,0.63
				l1.37,1.37v0.7l-0.71-0.71c-0.19-0.18-0.49-0.16-0.66,0.03c-0.16,0.18-0.16,0.45,0,0.63l1.37,1.37v3.27l-2.31-2.31v-1.93
				c-0.01-0.26-0.23-0.46-0.5-0.45c-0.24,0.01-0.44,0.21-0.45,0.45v1l-0.49-0.49v-1.94c0-0.26-0.21-0.47-0.47-0.47
				s-0.47,0.21-0.47,0.47l0,0v1l-0.52-0.52c-0.19-0.18-0.49-0.16-0.66,0.03c-0.16,0.18-0.16,0.45,0,0.63l0.52,0.52h-1
				c-0.26,0-0.47,0.21-0.47,0.47c0,0.26,0.21,0.47,0.47,0.47h1.94l0.49,0.5h-1c-0.26,0-0.47,0.21-0.47,0.47
				c0,0.26,0.21,0.47,0.47,0.47l0,0h1.94l2.31,2.31h-3.27l-1.37-1.37c-0.18-0.19-0.47-0.21-0.66-0.03
				c-0.19,0.18-0.21,0.47-0.03,0.66c0.01,0.01,0.02,0.02,0.03,0.03l0.71,0.71h-0.7l-1.37-1.37c-0.18-0.19-0.47-0.21-0.66-0.03
				c-0.19,0.18-0.21,0.47-0.03,0.66c0.01,0.01,0.02,0.02,0.03,0.03l0.71,0.71h-0.74c-0.26,0.01-0.46,0.23-0.45,0.5
				c0.01,0.24,0.21,0.44,0.45,0.45h0.74l-0.71,0.71c-0.18,0.19-0.16,0.49,0.03,0.66c0.18,0.16,0.45,0.16,0.63,0l1.37-1.37h0.7
				l-0.71,0.71c-0.18,0.18-0.18,0.48,0,0.66c0.09,0.09,0.21,0.14,0.33,0.14c0.12,0,0.24-0.05,0.33-0.14l1.37-1.37h3.27l-2.31,2.31
				h-1.94c-0.26,0-0.47,0.21-0.47,0.47c0,0.26,0.21,0.47,0.47,0.47h1l-0.49,0.5h-1.93c-0.26,0-0.47,0.21-0.47,0.47
				c0,0.26,0.21,0.47,0.47,0.47h1l-0.52,0.52c-0.18,0.19-0.16,0.49,0.03,0.66c0.18,0.16,0.45,0.16,0.63,0l0.52-0.52v1
				c0,0.26,0.21,0.47,0.47,0.47s0.47-0.21,0.47-0.47v-1.96l0.49-0.49v1c-0.01,0.26,0.19,0.48,0.45,0.5c0.26,0.01,0.48-0.19,0.5-0.45
				c0-0.01,0-0.03,0-0.04v-1.94l2.31-2.31v3.27l-1.37,1.37c-0.18,0.19-0.16,0.49,0.03,0.66c0.18,0.16,0.45,0.16,0.63,0l0.71-0.71
				v0.7l-1.37,1.37c-0.18,0.19-0.16,0.49,0.03,0.66c0.18,0.16,0.45,0.16,0.63,0l0.71-0.71v0.74c0,0.26,0.21,0.47,0.47,0.47
				s0.47-0.21,0.47-0.47v-0.74l0.71,0.71c0.19,0.18,0.49,0.16,0.66-0.03c0.16-0.18,0.16-0.45,0-0.63l-1.37-1.37v-0.7l0.71,0.71
				c0.19,0.18,0.49,0.16,0.66-0.03c0.16-0.18,0.16-0.45,0-0.63l-1.37-1.37v-3.27l2.31,2.31v1.94c-0.01,0.26,0.19,0.48,0.45,0.5
				c0.26,0.01,0.48-0.19,0.5-0.45c0-0.01,0-0.03,0-0.04v-1l0.49,0.49v1.94c-0.01,0.26,0.19,0.48,0.45,0.5
				c0.26,0.01,0.48-0.19,0.5-0.45c0-0.01,0-0.03,0-0.04v-1l0.52,0.52c0.21,0.15,0.5,0.11,0.66-0.1c0.12-0.16,0.12-0.39,0-0.55
				l-0.52-0.52h1c0.26,0,0.47-0.21,0.47-0.47c0-0.26-0.21-0.47-0.47-0.47h-1.94l-0.49-0.5h1c0.26,0,0.47-0.21,0.47-0.47
				c0-0.26-0.21-0.47-0.47-0.47h-1.95l-2.31-2.31h3.27l1.37,1.37c0.18,0.18,0.48,0.18,0.66,0c0.18-0.18,0.18-0.48,0-0.66
				c0,0,0,0,0,0l-0.71-0.71h0.7l1.37,1.37c0.19,0.18,0.49,0.16,0.66-0.03c0.16-0.18,0.16-0.45,0-0.63l-0.71-0.71h0.74
				C622.77,343.22,622.98,343.01,622.99,342.76z M171.25,606.73c0-0.26-0.21-0.47-0.47-0.47c0,0,0,0,0,0h-0.74l0.71-0.71
				c0.19-0.18,0.21-0.47,0.03-0.66s-0.47-0.21-0.66-0.03c-0.01,0.01-0.02,0.02-0.03,0.03l-1.37,1.37h-0.7l0.71-0.71
				c0.18-0.19,0.16-0.49-0.03-0.66c-0.18-0.16-0.45-0.16-0.63,0l-1.37,1.37h-3.27l2.31-2.31h1.94c0.26,0,0.47-0.21,0.47-0.47
				s-0.21-0.47-0.47-0.47h-1l0.5-0.5h1.94c0.26,0,0.47-0.21,0.47-0.47s-0.21-0.47-0.47-0.47h-1l0.52-0.52
				c0.18-0.19,0.16-0.49-0.03-0.66c-0.18-0.16-0.45-0.16-0.63,0l-0.52,0.52v-1c0-0.26-0.21-0.47-0.47-0.47
				c-0.26,0-0.47,0.21-0.47,0.47v1.94l-0.49,0.5v-1c-0.01-0.26-0.23-0.46-0.5-0.45c-0.24,0.01-0.44,0.21-0.45,0.45v1.94l-2.31,2.31
				v-3.27l1.37-1.37c0.18-0.19,0.16-0.49-0.03-0.66c-0.18-0.16-0.45-0.16-0.63,0l-0.71,0.71v-0.7l1.37-1.37
				c0.18-0.19,0.16-0.49-0.03-0.66c-0.18-0.16-0.45-0.16-0.63,0l-0.71,0.71v-0.74c0-0.26-0.21-0.47-0.47-0.47
				c-0.26,0-0.47,0.21-0.47,0.47v0.74l-0.71-0.71c-0.18-0.18-0.48-0.18-0.66,0c0,0,0,0,0,0c-0.18,0.18-0.18,0.48,0,0.66l1.37,1.37
				v0.7l-0.71-0.71c-0.19-0.18-0.49-0.16-0.66,0.03c-0.16,0.18-0.16,0.45,0,0.63l1.37,1.37v3.27l-2.31-2.31v-1.94
				c-0.01-0.26-0.23-0.46-0.5-0.45c-0.24,0.01-0.44,0.21-0.45,0.45v1l-0.5-0.5v-1.94c0-0.26-0.21-0.47-0.47-0.47
				c-0.26,0-0.47,0.21-0.47,0.47v1l-0.52-0.52c-0.19-0.18-0.49-0.16-0.66,0.03c-0.16,0.18-0.16,0.45,0,0.63l0.52,0.52h-1
				c-0.26,0-0.47,0.21-0.47,0.47s0.21,0.47,0.47,0.47h1.94l0.49,0.5h-1c-0.26,0-0.47,0.21-0.47,0.47s0.21,0.47,0.47,0.47l0,0h1.94
				l2.31,2.31h-3.27l-1.37-1.37c-0.19-0.18-0.49-0.16-0.66,0.03c-0.16,0.18-0.16,0.45,0,0.63l0.71,0.71h-0.7l-1.37-1.37
				c-0.19-0.18-0.49-0.16-0.66,0.03c-0.16,0.18-0.16,0.45,0,0.63l0.71,0.71h-0.74c-0.26,0-0.47,0.21-0.47,0.47s0.21,0.47,0.47,0.47
				h0.74l-0.71,0.71c-0.18,0.19-0.16,0.49,0.03,0.66c0.18,0.16,0.45,0.16,0.63,0l1.37-1.37h0.7l-0.71,0.71
				c-0.18,0.19-0.16,0.49,0.03,0.66c0.18,0.16,0.45,0.16,0.63,0l1.37-1.37h3.27l-2.31,2.31h-1.94c-0.26,0.01-0.46,0.23-0.45,0.5
				c0.01,0.24,0.21,0.44,0.45,0.45h1l-0.49,0.49h-1.94c-0.26,0.01-0.46,0.23-0.45,0.5c0.01,0.24,0.21,0.44,0.45,0.45h1l-0.52,0.52
				c-0.18,0.19-0.16,0.49,0.03,0.66c0.18,0.16,0.45,0.16,0.63,0l0.52-0.52v1c0,0.26,0.21,0.47,0.47,0.47c0.26,0,0.47-0.21,0.47-0.47
				v-1.94l0.5-0.5v1c-0.01,0.26,0.19,0.48,0.45,0.5c0.26,0.01,0.48-0.19,0.5-0.45c0-0.01,0-0.03,0-0.04v-1.94l2.31-2.31v3.27
				l-1.37,1.37c-0.18,0.19-0.16,0.49,0.03,0.66c0.18,0.16,0.45,0.16,0.63,0l0.71-0.71v0.7l-1.37,1.37
				c-0.18,0.19-0.16,0.49,0.03,0.66c0.18,0.16,0.45,0.16,0.63,0l0.71-0.71v0.74c0,0.26,0.21,0.47,0.47,0.47
				c0.26,0,0.47-0.21,0.47-0.47v-0.74l0.71,0.71c0.19,0.18,0.49,0.16,0.66-0.03c0.16-0.18,0.16-0.45,0-0.63l-1.37-1.37v-0.7
				l0.71,0.71c0.19,0.18,0.49,0.16,0.66-0.03c0.16-0.18,0.16-0.45,0-0.63l-1.37-1.37v-3.27l2.31,2.31v1.94
				c-0.01,0.26,0.19,0.48,0.45,0.5c0.26,0.01,0.48-0.19,0.5-0.45c0-0.01,0-0.03,0-0.04v-1l0.49,0.5v1.94c0,0.26,0.21,0.47,0.47,0.47
				c0.26,0,0.47-0.21,0.47-0.47v-1l0.52,0.52c0.19,0.18,0.49,0.16,0.66-0.03c0.16-0.18,0.16-0.45,0-0.63l-0.52-0.52h1
				c0.26,0.01,0.48-0.19,0.5-0.45c0.01-0.26-0.19-0.48-0.45-0.5c-0.01,0-0.03,0-0.04,0h-1.94l-0.5-0.49h1
				c0.26,0.01,0.48-0.19,0.5-0.45c0.01-0.26-0.19-0.48-0.45-0.5c-0.01,0-0.03,0-0.04,0h-1.94l-2.31-2.31h3.27l1.37,1.37
				c0.19,0.18,0.49,0.16,0.66-0.03c0.16-0.18,0.16-0.45,0-0.63l-0.71-0.71h0.7l1.37,1.37c0.18,0.19,0.47,0.21,0.66,0.03
				s0.21-0.47,0.03-0.66c-0.01-0.01-0.02-0.02-0.03-0.03l-0.71-0.71h0.74C171.04,607.19,171.25,606.99,171.25,606.73z M89.97,507.67
				c5.25,0,5.26-8.16,0-8.16S84.72,507.67,89.97,507.67z M652.01,327.7c5.25,0,5.26-8.16,0-8.16S646.75,327.7,652.01,327.7z
				 M625.89,780.52c5.25,0,5.26-8.16,0-8.16S620.63,780.52,625.89,780.52z M68.2,506.67c0.9-0.03,1.61-0.79,1.58-1.69
				c-0.03-0.86-0.72-1.55-1.58-1.58c-0.9,0.03-1.61,0.79-1.58,1.69C66.66,505.95,67.35,506.64,68.2,506.67z M302.24,307.83
				c0.9-0.02,1.61-0.77,1.59-1.67c-0.02-0.87-0.72-1.57-1.59-1.59c-0.9,0.02-1.61,0.77-1.59,1.67
				C300.66,307.11,301.36,307.81,302.24,307.83z M508.33,409.43c0.9-0.02,1.61-0.77,1.59-1.67c-0.02-0.87-0.72-1.57-1.59-1.59
				c-0.9,0.02-1.61,0.77-1.59,1.67C506.76,408.71,507.46,409.41,508.33,409.43z M646.21,788.24c0.9-0.03,1.61-0.79,1.58-1.69
				c-0.03-0.86-0.72-1.55-1.58-1.58c-0.9,0.03-1.61,0.79-1.58,1.69C644.66,787.52,645.35,788.21,646.21,788.24z M514.14,579.24
				c0.9-0.02,1.61-0.77,1.59-1.67c-0.02-0.87-0.72-1.57-1.59-1.59c-0.9,0.02-1.61,0.77-1.59,1.67
				C512.57,578.51,513.27,579.21,514.14,579.24z M215.15,379.95c5.25,0,5.26-8.16,0-8.16S209.9,379.95,215.15,379.95z
				 M502.52,233.36c5.25,0,5.26-8.16,0-8.16S497.27,233.36,502.52,233.36z M209.35,195.62c5.25,0,5.26-8.16,0-8.16
				S204.09,195.62,209.35,195.62z M583.8,150.64c5.25,0,5.26-8.16,0-8.16S578.54,150.64,583.8,150.64z M371.9,153.54
				c5.25,0,5.26-8.16,0-8.16S366.64,153.54,371.9,153.54z M88.89,183.02c0.9-0.03,1.61-0.79,1.58-1.69
				c-0.03-0.86-0.72-1.55-1.58-1.58c-0.9,0.03-1.61,0.79-1.58,1.69C87.34,182.3,88.03,182.99,88.89,183.02z M141.13,302.03
				c0.9-0.03,1.61-0.79,1.58-1.69c-0.03-0.86-0.72-1.55-1.58-1.58c-0.9,0.03-1.61,0.79-1.58,1.69
				C139.59,301.31,140.28,302,141.13,302.03z M673.78,589.4c0.9-0.03,1.61-0.79,1.58-1.69c-0.03-0.86-0.72-1.55-1.58-1.58
				c-0.9,0.03-1.61,0.79-1.58,1.69C672.24,588.68,672.93,589.37,673.78,589.4z M248.54,962.4c0.9-0.03,1.61-0.79,1.58-1.69
				c-0.03-0.86-0.72-1.55-1.58-1.58c-0.9,0.03-1.61,0.79-1.58,1.69C246.99,961.68,247.68,962.37,248.54,962.4z M51.12,771.14
				c1.05-0.03,1.88-0.91,1.84-1.97c-0.03-1-0.84-1.81-1.84-1.84c-1.05,0.03-1.88,0.91-1.84,1.97
				C49.31,770.3,50.12,771.1,51.12,771.14z M409.61,840.26c0.75-0.02,1.34-0.65,1.32-1.4c-0.02-0.72-0.6-1.3-1.32-1.32
				c-0.75,0.02-1.34,0.65-1.32,1.4C408.31,839.65,408.89,840.24,409.61,840.26z M136.75,930.24c0.75-0.03,1.34-0.66,1.31-1.41
				c-0.03-0.71-0.6-1.28-1.31-1.31c-0.75,0.03-1.34,0.66-1.31,1.41C135.47,929.64,136.04,930.21,136.75,930.24z"/>
			<path id="snowflake1" class="st2" d="M635.62,467.37h1.68l-1.61,1.61c-0.42,0.41-0.44,1.09-0.03,1.51s1.09,0.44,1.51,0.03
				c0.01-0.01,0.02-0.02,0.03-0.03l3.12-3.12h1.58l-1.61,1.61c-0.42,0.41-0.44,1.09-0.03,1.51s1.09,0.44,1.51,0.03
				c0.01-0.01,0.02-0.02,0.03-0.03l3.12-3.12h7.43l-5.25,5.25h-4.41c-0.59,0-1.07,0.48-1.07,1.07c0,0.59,0.48,1.07,1.07,1.07h2.27
				l-1.12,1.12h-4.41c-0.59,0.02-1.06,0.51-1.04,1.11c0.02,0.57,0.47,1.02,1.04,1.04h2.27l-1.19,1.19c-0.42,0.42-0.42,1.09,0,1.51
				c0,0,0,0,0,0c0.2,0.2,0.47,0.32,0.76,0.32c0.28,0,0.56-0.11,0.76-0.32l1.19-1.19v2.27c0,0.59,0.48,1.07,1.07,1.08
				c0.59,0,1.07-0.48,1.08-1.07c0,0,0-0.01,0-0.01v-4.41l1.12-1.12v2.27c0,0.59,0.48,1.07,1.07,1.07s1.07-0.48,1.07-1.07v-4.41
				l5.25-5.25v7.43l-3.12,3.12c-0.42,0.42-0.42,1.09,0,1.51c0,0,0,0,0,0c0.2,0.2,0.47,0.32,0.76,0.32c0.28,0,0.56-0.11,0.76-0.32
				l1.61-1.61v1.58l-3.14,3.13c-0.41,0.42-0.4,1.1,0.03,1.51c0.41,0.4,1.07,0.4,1.49,0l1.61-1.61v1.68c0,0.59,0.48,1.07,1.07,1.08
				c0.59,0,1.07-0.48,1.08-1.07c0,0,0-0.01,0-0.01v-1.68l1.61,1.61c0.2,0.2,0.47,0.32,0.76,0.32c0.59,0,1.07-0.48,1.07-1.08
				c0-0.28-0.11-0.55-0.31-0.75l-3.12-3.12v-1.59l1.61,1.6c0.42,0.41,1.1,0.4,1.51-0.03c0.4-0.41,0.4-1.07,0-1.49l-3.12-3.12v-7.43
				l5.25,5.25v4.41c0.02,0.59,0.51,1.06,1.1,1.04c0.57-0.02,1.02-0.47,1.04-1.04v-2.27l1.12,1.12v4.41c0,0.59,0.48,1.07,1.07,1.08
				c0.59,0,1.07-0.48,1.08-1.07c0,0,0-0.01,0-0.01v-2.26l1.19,1.19c0.2,0.2,0.47,0.32,0.76,0.32c0.59,0,1.07-0.49,1.07-1.08
				c0-0.28-0.11-0.55-0.31-0.75l-1.19-1.19h2.27c0.59,0,1.07-0.48,1.07-1.07c0-0.59-0.48-1.07-1.07-1.07h-4.41l-1.12-1.12h2.27
				c0.59,0,1.07-0.48,1.07-1.07c0-0.59-0.48-1.07-1.07-1.07l0,0h-4.41l-5.25-5.25h7.43l3.12,3.12c0.2,0.2,0.47,0.32,0.76,0.32
				c0.59,0,1.07-0.48,1.07-1.08c0-0.28-0.11-0.55-0.31-0.75l-1.61-1.61h1.58l3.12,3.12c0.2,0.2,0.47,0.32,0.76,0.32
				c0.59,0,1.07-0.48,1.07-1.08c0-0.28-0.11-0.55-0.31-0.75l-1.61-1.61h1.68c0.59,0,1.07-0.48,1.07-1.07c0-0.59-0.48-1.07-1.07-1.07
				h-1.68l1.61-1.61c0.42-0.41,0.44-1.09,0.03-1.51s-1.09-0.44-1.51-0.03c-0.01,0.01-0.02,0.02-0.03,0.03l-3.12,3.12H668l1.61-1.61
				c0.42-0.41,0.44-1.09,0.03-1.51s-1.09-0.44-1.51-0.03c-0.01,0.01-0.02,0.02-0.03,0.03l-3.12,3.12h-7.41l5.25-5.25h4.41
				c0.59,0,1.07-0.48,1.07-1.07c0-0.59-0.48-1.07-1.07-1.07h-2.27l1.12-1.12h4.41c0.59,0,1.07-0.48,1.07-1.07
				c0-0.59-0.48-1.07-1.07-1.07h-2.27l1.19-1.19c0.42-0.41,0.44-1.09,0.03-1.51s-1.09-0.44-1.51-0.03
				c-0.01,0.01-0.02,0.02-0.03,0.03l-1.19,1.19v-2.27c-0.02-0.59-0.51-1.06-1.1-1.04c-0.57,0.02-1.02,0.47-1.04,1.04v4.41
				l-1.12,1.12v-2.27c0-0.59-0.48-1.07-1.07-1.08c-0.59,0-1.07,0.48-1.08,1.07c0,0,0,0.01,0,0.01v4.41l-5.25,5.25v-7.43l3.12-3.12
				c0.42-0.41,0.44-1.09,0.03-1.51s-1.09-0.44-1.51-0.03c-0.01,0.01-0.02,0.02-0.03,0.03l-1.6,1.61v-1.58l3.12-3.11
				c0.42-0.41,0.44-1.09,0.03-1.51s-1.09-0.44-1.51-0.03c-0.01,0.01-0.02,0.02-0.03,0.03l-1.6,1.61v-1.68
				c-0.02-0.59-0.51-1.06-1.1-1.04c-0.57,0.02-1.02,0.47-1.04,1.04v1.68l-1.6-1.61c-0.41-0.42-1.09-0.44-1.51-0.03
				c-0.42,0.41-0.44,1.09-0.03,1.51c0.01,0.01,0.02,0.02,0.03,0.03l3.12,3.12v1.58l-1.6-1.61c-0.41-0.42-1.09-0.44-1.51-0.03
				c-0.42,0.41-0.44,1.09-0.03,1.51c0.01,0.01,0.02,0.02,0.03,0.03l3.12,3.12v7.43l-5.25-5.25v-4.41c0-0.59-0.48-1.07-1.07-1.08
				c-0.59,0-1.07,0.48-1.08,1.07c0,0,0,0.01,0,0.01v2.27l-1.12-1.12v-4.41c-0.02-0.59-0.51-1.06-1.1-1.04
				c-0.57,0.02-1.02,0.47-1.04,1.04v2.27l-1.19-1.19c-0.41-0.42-1.09-0.44-1.51-0.03c-0.42,0.41-0.44,1.09-0.03,1.51
				c0.01,0.01,0.02,0.02,0.03,0.03l1.19,1.19h-2.29c-0.59,0-1.07,0.48-1.07,1.07c0,0.59,0.48,1.07,1.07,1.07h4.41l1.12,1.12h-2.27
				c-0.59,0-1.07,0.48-1.07,1.07c0,0.59,0.48,1.07,1.07,1.07h4.41l5.25,5.25h-7.43l-3.12-3.12c-0.41-0.42-1.09-0.44-1.51-0.03
				c-0.42,0.41-0.44,1.09-0.03,1.51c0.01,0.01,0.02,0.02,0.03,0.03l1.6,1.61h-1.59l-3.12-3.12c-0.41-0.42-1.09-0.44-1.51-0.03
				c-0.42,0.41-0.44,1.09-0.03,1.51c0.01,0.01,0.02,0.02,0.03,0.03l1.61,1.61h-1.68c-0.59-0.02-1.08,0.44-1.1,1.03
				c-0.02,0.59,0.44,1.08,1.03,1.1C635.57,467.36,635.59,467.36,635.62,467.37L635.62,467.37z M434.98,239.48h0.8l-0.76,0.76
				c-0.2,0.2-0.2,0.52,0,0.72c0.2,0.2,0.52,0.2,0.72,0l1.48-1.48h0.75l-0.76,0.76c-0.2,0.2-0.2,0.52,0,0.72c0.2,0.2,0.52,0.2,0.72,0
				l1.48-1.48h3.53l-2.49,2.49h-2.1c-0.28,0-0.51,0.22-0.51,0.5c0,0.28,0.22,0.51,0.5,0.51c0,0,0,0,0,0h1.08l-0.53,0.53h-2.1
				c-0.28,0-0.51,0.23-0.5,0.51c0,0.28,0.23,0.5,0.5,0.5h1.08l-0.57,0.57c-0.2,0.2-0.2,0.52,0,0.72c0.2,0.2,0.52,0.2,0.72,0
				l0.57-0.57v1.08c0.01,0.28,0.25,0.5,0.53,0.48c0.26-0.01,0.47-0.22,0.48-0.48v-2.1l0.53-0.53v1.08c0,0.28,0.22,0.51,0.5,0.51
				s0.51-0.22,0.51-0.5c0,0,0,0,0,0v-2.1l2.49-2.49v3.53l-1.48,1.48c-0.2,0.2-0.2,0.52,0,0.72c0.2,0.2,0.52,0.2,0.72,0l0.76-0.76
				v0.75l-1.48,1.48c-0.21,0.19-0.22,0.51-0.02,0.72c0.19,0.21,0.51,0.22,0.72,0.02c0.01-0.01,0.02-0.02,0.02-0.02l0.76-0.76v0.8
				c0,0.28,0.22,0.51,0.5,0.51s0.51-0.22,0.51-0.5c0,0,0,0,0,0v-0.8l0.76,0.76c0.2,0.2,0.52,0.2,0.72,0c0.2-0.2,0.2-0.52,0-0.72
				l-1.48-1.48v-0.75l0.76,0.76c0.2,0.2,0.52,0.2,0.72,0c0.2-0.2,0.2-0.52,0-0.72l0,0l-1.48-1.48v-3.53l2.49,2.49v2.1
				c0,0.28,0.22,0.51,0.5,0.51s0.51-0.22,0.51-0.5c0,0,0,0,0,0v-1.08l0.53,0.53v2.1c0,0.28,0.22,0.51,0.5,0.51s0.51-0.22,0.51-0.5
				c0,0,0,0,0,0v-1.08l0.57,0.57c0.21,0.19,0.53,0.18,0.72-0.02c0.18-0.2,0.18-0.5,0-0.69l-0.57-0.57h1.08
				c0.28,0,0.51-0.23,0.5-0.51c0-0.28-0.23-0.5-0.5-0.5h-2.1l-0.53-0.53h1.08c0.28,0,0.51-0.23,0.5-0.51c0-0.28-0.23-0.5-0.5-0.5
				h-2.1l-2.47-2.49h3.53l1.47,1.48c0.2,0.2,0.52,0.2,0.72,0c0.2-0.2,0.2-0.52,0-0.72l-0.76-0.76h0.75l1.48,1.48
				c0.21,0.19,0.53,0.18,0.72-0.02c0.18-0.2,0.18-0.5,0-0.69l-0.76-0.76h0.8c0.28,0,0.51-0.22,0.51-0.5c0-0.28-0.22-0.51-0.5-0.51
				c0,0,0,0,0,0h-0.8l0.76-0.76c0.2-0.2,0.2-0.52,0-0.72c-0.2-0.2-0.52-0.2-0.72,0l0,0l-1.48,1.48h-0.75l0.76-0.76
				c0.2-0.2,0.2-0.52,0-0.72c-0.2-0.2-0.52-0.2-0.72,0l0,0l-1.48,1.48h-3.52l2.49-2.49h2.1c0.28,0,0.51-0.23,0.5-0.51
				c0-0.28-0.23-0.5-0.5-0.5h-1.08l0.53-0.53h2.1c0.28,0,0.51-0.23,0.5-0.51c0-0.28-0.23-0.5-0.5-0.5h-1.08l0.57-0.57
				c0.19-0.21,0.18-0.53-0.02-0.72c-0.2-0.18-0.5-0.18-0.69,0l-0.57,0.57v-1.08c0-0.28-0.22-0.51-0.5-0.51s-0.51,0.22-0.51,0.5
				c0,0,0,0,0,0v2.1l-0.53,0.53v-1.08c0-0.28-0.22-0.51-0.5-0.51s-0.51,0.22-0.51,0.5c0,0,0,0,0,0v2.1l-2.49,2.49v-3.53l1.48-1.48
				c0.2-0.2,0.2-0.52,0-0.72c-0.2-0.2-0.52-0.2-0.72,0l-0.76,0.76v-0.75l1.48-1.48c0.2-0.2,0.2-0.52,0-0.72
				c-0.2-0.2-0.52-0.2-0.72,0l-0.76,0.76v-0.8c0-0.28-0.22-0.51-0.5-0.51s-0.51,0.22-0.51,0.5c0,0,0,0,0,0v0.8l-0.76-0.76
				c-0.19-0.21-0.51-0.22-0.72-0.02c-0.21,0.19-0.22,0.51-0.02,0.72c0.01,0.01,0.02,0.02,0.02,0.02l1.48,1.48v0.75l-0.76-0.76
				c-0.21-0.19-0.53-0.18-0.72,0.02c-0.18,0.2-0.18,0.5,0,0.69l1.48,1.48v3.52l-2.49-2.49v-2.1c0-0.28-0.22-0.51-0.5-0.51
				s-0.51,0.22-0.51,0.5c0,0,0,0,0,0v1.08l-0.53-0.53v-2.1c-0.01-0.28-0.25-0.5-0.53-0.48c-0.26,0.01-0.47,0.22-0.48,0.48v1.08
				l-0.57-0.57c-0.19-0.21-0.51-0.22-0.72-0.02c-0.21,0.19-0.22,0.51-0.02,0.72c0.01,0.01,0.02,0.02,0.02,0.02l0.57,0.57h-1.08
				c-0.28,0-0.51,0.23-0.5,0.51c0,0.28,0.23,0.5,0.5,0.5h2.1l0.53,0.53h-1.1c-0.28,0-0.51,0.22-0.51,0.5c0,0.28,0.22,0.51,0.5,0.51
				c0,0,0,0,0,0h2.1l2.49,2.49h-3.53l-1.48-1.48c-0.2-0.2-0.52-0.2-0.72,0c-0.2,0.2-0.2,0.52,0,0.72l0,0l0.76,0.76h-0.75l-1.48-1.48
				c-0.2-0.2-0.52-0.2-0.72,0c-0.2,0.2-0.2,0.52,0,0.72l0.76,0.76h-0.8c-0.28,0-0.5,0.22-0.51,0.49c0,0,0,0.01,0,0.01
				c-0.01,0.28,0.21,0.51,0.48,0.52C434.97,239.48,434.97,239.48,434.98,239.48z M496.77,908.64h1.8l-1.71,1.71
				c-0.45,0.44-0.46,1.17-0.02,1.62s1.17,0.46,1.62,0.02c0.01-0.01,0.01-0.01,0.02-0.02l3.34-3.34h1.7l-1.71,1.71
				c-0.45,0.44-0.46,1.17-0.02,1.62s1.17,0.46,1.62,0.02c0.01-0.01,0.01-0.01,0.02-0.02l3.34-3.34h7.95l-5.62,5.62h-4.72
				c-0.63,0-1.14,0.51-1.14,1.14s0.51,1.14,1.14,1.14h2.43l-1.2,1.2h-4.72c-0.63,0-1.14,0.51-1.14,1.14s0.51,1.14,1.14,1.14h2.43
				l-1.27,1.27c-0.45,0.44-0.46,1.17-0.02,1.62s1.17,0.46,1.62,0.02c0.01-0.01,0.01-0.01,0.02-0.02l1.27-1.27v2.43
				c0,0.63,0.51,1.14,1.14,1.14s1.14-0.51,1.14-1.14v-4.73l1.2-1.2v2.43c0,0.63,0.51,1.14,1.14,1.14s1.14-0.51,1.14-1.14l0,0v-4.72
				l5.62-5.62v7.95l-3.34,3.34c-0.45,0.44-0.46,1.17-0.02,1.62c0.44,0.45,1.17,0.46,1.62,0.02c0.01-0.01,0.01-0.01,0.02-0.02
				l1.71-1.72v1.7l-3.34,3.34c-0.44,0.45-0.44,1.18,0.02,1.62c0.45,0.44,1.16,0.44,1.6,0l1.71-1.72v1.8c0,0.63,0.51,1.14,1.14,1.14
				s1.14-0.51,1.14-1.14v-1.8l1.72,1.72c0.45,0.44,1.18,0.44,1.62-0.02c0.44-0.45,0.44-1.16,0-1.6l-3.34-3.34v-1.7l1.72,1.72
				c0.45,0.44,1.18,0.44,1.62-0.02c0.44-0.45,0.44-1.16,0-1.6l-3.34-3.34v-7.95l5.62,5.62v4.72c-0.02,0.63,0.48,1.16,1.11,1.18
				s1.16-0.48,1.18-1.11c0-0.02,0-0.05,0-0.07v-2.43l1.2,1.2v4.72c0,0.63,0.51,1.14,1.14,1.14s1.14-0.51,1.14-1.14v-2.43l1.27,1.27
				c0.45,0.44,1.18,0.44,1.62-0.02c0.44-0.45,0.44-1.16,0-1.6l-1.27-1.27h2.43c0.63,0,1.14-0.51,1.14-1.14s-0.51-1.14-1.14-1.14
				h-4.72l-1.2-1.2h2.43c0.63,0,1.14-0.51,1.14-1.14s-0.51-1.14-1.14-1.14h-4.72l-5.62-5.62h7.95l3.34,3.34
				c0.45,0.44,1.18,0.44,1.62-0.02c0.44-0.45,0.44-1.16,0-1.6l-1.71-1.71h1.7l3.34,3.34c0.45,0.44,1.18,0.44,1.62-0.02
				c0.44-0.45,0.44-1.16,0-1.6l-1.71-1.71h1.8c0.63,0,1.14-0.51,1.14-1.14s-0.51-1.14-1.14-1.14h-1.8l1.71-1.71
				c0.44-0.45,0.44-1.18-0.02-1.62c-0.45-0.44-1.16-0.44-1.6,0l-3.34,3.34h-1.7l1.71-1.71c0.44-0.45,0.44-1.18-0.02-1.62
				c-0.45-0.44-1.16-0.44-1.6,0l-3.34,3.35h-7.95l5.62-5.62h4.72c0.63,0,1.14-0.51,1.14-1.14s-0.51-1.14-1.14-1.14h-2.43l1.2-1.2
				h4.72c0.63,0,1.14-0.51,1.14-1.14s-0.51-1.14-1.14-1.14h-2.43l1.27-1.27c0.44-0.45,0.44-1.18-0.02-1.62
				c-0.45-0.44-1.16-0.44-1.6,0l-1.27,1.27v-2.43c0-0.63-0.51-1.14-1.14-1.14s-1.14,0.51-1.14,1.14v4.72l-1.2,1.2v-2.43
				c0.02-0.63-0.48-1.16-1.11-1.18s-1.16,0.48-1.18,1.11c0,0.02,0,0.05,0,0.07v4.72l-5.62,5.62v-7.95l3.34-3.34
				c0.44-0.45,0.44-1.18-0.02-1.62c-0.45-0.44-1.16-0.44-1.6,0l-1.72,1.72v-1.7l3.34-3.34c0.44-0.46,0.42-1.19-0.05-1.62
				c-0.44-0.42-1.13-0.42-1.58,0l-1.72,1.71v-1.8c0-0.63-0.51-1.14-1.14-1.14s-1.14,0.51-1.14,1.14l0,0v1.8l-1.71-1.71
				c-0.44-0.46-1.16-0.48-1.62-0.05s-0.48,1.16-0.05,1.62c0.01,0.02,0.03,0.03,0.04,0.04l3.34,3.34v1.7l-1.71-1.72
				c-0.44-0.45-1.17-0.46-1.62-0.02c-0.45,0.44-0.46,1.17-0.02,1.62c0.01,0.01,0.01,0.01,0.02,0.02l3.34,3.34v7.95l-5.62-5.62v-4.72
				c0-0.63-0.51-1.14-1.14-1.14s-1.14,0.51-1.14,1.14v2.43l-1.2-1.2v-4.72c0-0.63-0.51-1.14-1.14-1.14s-1.14,0.51-1.14,1.14v2.43
				l-1.27-1.27c-0.46-0.44-1.19-0.42-1.62,0.04c-0.42,0.44-0.42,1.14,0,1.58l1.27,1.27h-2.43c-0.63,0-1.14,0.51-1.14,1.14
				s0.51,1.14,1.14,1.14h4.72l1.2,1.2h-2.43c-0.63,0-1.14,0.51-1.14,1.14s0.51,1.14,1.14,1.14h4.72l5.62,5.62h-7.95l-3.34-3.34
				c-0.46-0.44-1.19-0.42-1.62,0.04c-0.42,0.44-0.42,1.14,0,1.58l1.71,1.71h-1.7l-3.34-3.34c-0.44-0.45-1.17-0.46-1.62-0.02
				c-0.45,0.44-0.46,1.17-0.02,1.62c0.01,0.01,0.01,0.01,0.02,0.02l1.71,1.71h-1.8c-0.63,0-1.14,0.51-1.14,1.14
				S496.13,908.64,496.77,908.64L496.77,908.64z M130.24,881.36h1.2l-1.14,1.14c-0.3,0.3-0.3,0.78,0,1.08s0.78,0.3,1.08,0l2.22-2.22
				h1.13l-1.14,1.14c-0.3,0.3-0.3,0.78,0,1.08s0.78,0.3,1.08,0l0,0l2.22-2.22h5.29l-3.74,3.74h-3.14c-0.42,0-0.76,0.34-0.77,0.76
				s0.34,0.76,0.76,0.77c0,0,0,0,0.01,0h1.62l-0.8,0.8h-3.14c-0.42,0-0.76,0.34-0.77,0.76s0.34,0.76,0.76,0.77c0,0,0,0,0.01,0h1.62
				l-0.85,0.85c-0.3,0.3-0.3,0.78,0,1.08s0.78,0.3,1.08,0l0,0l0.85-0.85v1.62c0,0.42,0.34,0.76,0.76,0.76
				c0.42,0,0.76-0.34,0.76-0.76v-3.14l0.8-0.8v1.62c0,0.42,0.34,0.76,0.76,0.76c0.42,0,0.76-0.34,0.76-0.76l0,0v-3.14l3.74-3.74
				v5.29l-2.22,2.22c-0.29,0.31-0.27,0.79,0.04,1.08c0.29,0.27,0.75,0.27,1.04,0l1.14-1.14v1.13l-2.22,2.22
				c-0.29,0.3-0.29,0.78,0.02,1.08c0.3,0.29,0.77,0.29,1.06,0l1.14-1.14v1.2c0,0.42,0.34,0.76,0.76,0.76c0.42,0,0.76-0.34,0.76-0.76
				l0,0v-1.2l1.14,1.14c0.3,0.3,0.78,0.3,1.08,0s0.3-0.78,0-1.08l0,0l-2.22-2.22v-1.13l1.14,1.14c0.29,0.3,0.78,0.31,1.08,0.02
				c0.3-0.29,0.31-0.78,0.02-1.08c-0.01-0.01-0.01-0.01-0.02-0.02l-2.22-2.22v-5.29l3.74,3.74v3.14c0,0.42,0.34,0.76,0.76,0.76
				c0.42,0,0.76-0.34,0.76-0.76l0,0v-1.62l0.8,0.8v3.14c0,0.42,0.34,0.76,0.76,0.76c0.42,0,0.76-0.34,0.76-0.76v-1.62l0.85,0.85
				c0.3,0.3,0.78,0.3,1.08,0s0.3-0.78,0-1.08l0,0l-0.85-0.85h1.62c0.42,0,0.76-0.34,0.77-0.76s-0.34-0.76-0.76-0.77c0,0,0,0-0.01,0
				h-3.14l-0.8-0.8h1.62c0.42,0,0.76-0.34,0.77-0.76s-0.34-0.76-0.76-0.77c0,0,0,0-0.01,0h-3.14l-3.74-3.74h5.29l2.22,2.22
				c0.3,0.3,0.78,0.3,1.08,0s0.3-0.78,0-1.08l-1.14-1.14h1.13l2.22,2.22c0.3,0.3,0.78,0.3,1.08,0s0.3-0.78,0-1.08l-1.14-1.14h1.2
				c0.42,0,0.76-0.34,0.77-0.76s-0.34-0.76-0.76-0.77c0,0,0,0-0.01,0h-1.2l1.14-1.14c0.3-0.29,0.31-0.78,0.02-1.08
				s-0.78-0.31-1.08-0.02c-0.01,0.01-0.01,0.01-0.02,0.02l-2.22,2.22h-1.13l1.14-1.14c0.3-0.29,0.31-0.78,0.02-1.08
				s-0.78-0.31-1.08-0.02c-0.01,0.01-0.01,0.01-0.02,0.02l-2.22,2.22h-5.29l3.74-3.74h3.14c0.42,0,0.76-0.34,0.77-0.76
				s-0.34-0.76-0.76-0.77c0,0,0,0-0.01,0h-1.62l0.8-0.8h3.14c0.42,0,0.76-0.34,0.77-0.76s-0.34-0.76-0.76-0.77c0,0,0,0-0.01,0h-1.62
				l0.85-0.85c0.29-0.3,0.29-0.78-0.02-1.08c-0.3-0.29-0.77-0.29-1.06,0l-0.85,0.85v-1.62c0-0.42-0.34-0.76-0.76-0.76
				c-0.42,0-0.76,0.34-0.76,0.76v3.14l-0.8,0.8v-1.62c0-0.42-0.34-0.76-0.76-0.76c-0.42,0-0.76,0.34-0.76,0.76v3.14l-3.74,3.74
				v-5.29l2.22-2.22c0.3-0.3,0.3-0.78,0-1.08s-0.78-0.3-1.08,0l-1.14,1.14v-1.13l2.22-2.22c0.3-0.3,0.3-0.78,0-1.08
				s-0.78-0.3-1.08,0l-1.14,1.14v-1.2c0-0.42-0.34-0.76-0.76-0.76c-0.42,0-0.76,0.34-0.76,0.76v1.2l-1.14-1.14
				c-0.3-0.29-0.78-0.28-1.08,0.02c-0.29,0.3-0.29,0.77,0,1.06l2.22,2.22v1.13l-1.14-1.14c-0.3-0.29-0.78-0.28-1.08,0.02
				c-0.29,0.3-0.29,0.77,0,1.06l2.22,2.22v5.29l-3.74-3.74v-3.14c0-0.42-0.34-0.76-0.76-0.76c-0.42,0-0.76,0.34-0.76,0.76v1.62
				l-0.8-0.8v-3.14c0-0.42-0.34-0.76-0.76-0.76c-0.42,0-0.76,0.34-0.76,0.76v1.62l-0.85-0.85c-0.29-0.3-0.78-0.31-1.08-0.02
				c-0.3,0.29-0.31,0.78-0.02,1.08c0.01,0.01,0.01,0.01,0.02,0.02l0.85,0.85h-1.61c-0.42,0-0.76,0.34-0.77,0.76s0.34,0.76,0.76,0.77
				c0,0,0,0,0.01,0h3.14l0.8,0.8h-1.62c-0.42,0-0.76,0.34-0.77,0.76s0.34,0.76,0.76,0.77c0,0,0,0,0.01,0h3.14l3.74,3.74h-5.29
				l-2.22-2.22c-0.3-0.29-0.78-0.29-1.08,0.02c-0.29,0.3-0.29,0.77,0,1.06l1.14,1.14h-1.13l-2.22-2.22
				c-0.3-0.29-0.78-0.29-1.08,0.02c-0.29,0.3-0.29,0.77,0,1.06l1.14,1.14h-1.2c-0.42,0-0.76,0.34-0.77,0.76
				S129.81,881.35,130.24,881.36C130.23,881.36,130.23,881.36,130.24,881.36L130.24,881.36z M69.6,280.7h1.68l-1.61,1.61
				c-0.42,0.42-0.42,1.09,0,1.51c0,0,0,0,0,0c0.2,0.2,0.47,0.32,0.76,0.32c0.28,0,0.56-0.12,0.76-0.32l3.12-3.12h1.58l-1.61,1.61
				c-0.42,0.41-0.42,1.09-0.01,1.51c0,0,0,0,0.01,0.01c0.2,0.2,0.47,0.32,0.76,0.32c0.28,0,0.56-0.12,0.76-0.32l3.12-3.12h7.43
				l-5.25,5.25h-4.41c-0.59,0-1.07,0.48-1.07,1.07c0,0.59,0.48,1.07,1.07,1.07h2.27l-1.12,1.12h-4.41c-0.59,0-1.07,0.48-1.07,1.07
				c0,0.59,0.48,1.07,1.07,1.07h2.27l-1.19,1.2c-0.42,0.42-0.42,1.09,0,1.51c0,0,0,0,0,0c0.2,0.2,0.47,0.32,0.76,0.32
				c0.28,0,0.56-0.11,0.76-0.32l1.19-1.19v2.27c0,0.59,0.48,1.07,1.07,1.07c0.59,0,1.07-0.48,1.07-1.07v-4.41l1.12-1.12v2.27
				c0,0.59,0.48,1.07,1.07,1.07c0.59,0,1.07-0.48,1.07-1.07v-4.41l5.25-5.25v7.43l-3.12,3.12c-0.42,0.42-0.42,1.09,0,1.51
				c0,0,0,0,0,0c0.2,0.2,0.47,0.32,0.76,0.32c0.28,0,0.56-0.12,0.76-0.32l1.6-1.61v1.57l-3.12,3.12c-0.41,0.42-0.4,1.1,0.03,1.51
				c0.41,0.4,1.07,0.4,1.49,0l1.6-1.61v1.68c0.02,0.59,0.51,1.06,1.11,1.04c0.57-0.02,1.02-0.47,1.04-1.04v-1.68l1.6,1.61
				c0.2,0.2,0.47,0.32,0.76,0.32c0.59,0,1.07-0.49,1.07-1.08c0-0.28-0.11-0.55-0.31-0.75l-3.1-3.12v-1.58l1.6,1.61
				c0.42,0.41,1.1,0.4,1.51-0.03c0.4-0.41,0.4-1.07,0-1.49l-3.11-3.11v-7.43l5.25,5.25v4.41c0,0.59,0.48,1.07,1.07,1.07
				c0.59,0,1.07-0.48,1.07-1.07v-2.27l1.12,1.12v4.41c0,0.59,0.48,1.07,1.07,1.07c0.59,0,1.07-0.48,1.07-1.07v-2.27l1.19,1.19
				c0.2,0.2,0.47,0.32,0.76,0.32c0.59,0,1.07-0.48,1.07-1.08c0-0.28-0.11-0.55-0.31-0.75l-1.19-1.19h2.27
				c0.59,0,1.07-0.48,1.07-1.07c0-0.59-0.48-1.07-1.07-1.07l0,0h-4.41l-1.12-1.12h2.27c0.59,0,1.07-0.48,1.07-1.07
				c0-0.59-0.48-1.07-1.07-1.07h-4.41l-5.25-5.25h7.43l3.12,3.12c0.2,0.2,0.47,0.32,0.76,0.32c0.59,0,1.07-0.49,1.07-1.08
				c0-0.28-0.11-0.55-0.31-0.75l-1.61-1.61h1.58l3.12,3.12c0.2,0.2,0.47,0.32,0.76,0.32c0.59,0,1.07-0.49,1.07-1.08
				c0-0.28-0.11-0.55-0.31-0.75l-1.61-1.61h1.68c0.59,0,1.07-0.48,1.07-1.07c0-0.59-0.48-1.07-1.07-1.07l0,0h-1.68l1.61-1.61
				c0.41-0.42,0.4-1.1-0.03-1.51c-0.41-0.4-1.07-0.4-1.49,0l-3.12,3.12h-1.58l1.61-1.61c0.41-0.42,0.4-1.1-0.03-1.51
				c-0.41-0.4-1.07-0.4-1.49,0l-3.12,3.12h-7.43l5.25-5.25h4.41c0.59,0,1.07-0.48,1.07-1.07c0-0.59-0.48-1.07-1.07-1.07h-2.27
				l1.12-1.12h4.41c0.59,0,1.07-0.48,1.07-1.07c0-0.59-0.48-1.07-1.07-1.07h-2.27l1.19-1.19c0.42-0.41,0.44-1.09,0.03-1.51
				s-1.09-0.44-1.51-0.03c-0.01,0.01-0.02,0.02-0.03,0.03l-1.19,1.19v-2.27c0-0.59-0.48-1.07-1.07-1.07c-0.59,0-1.07,0.48-1.07,1.07
				v4.41l-1.12,1.12v-2.27c0-0.59-0.48-1.07-1.07-1.07c-0.59,0-1.07,0.48-1.07,1.07v4.41l-5.25,5.25v-7.43l3.12-3.12
				c0.41-0.42,0.4-1.1-0.03-1.51c-0.41-0.4-1.07-0.4-1.49,0l-1.6,1.61v-1.58l3.12-3.12c0.41-0.42,0.4-1.1-0.03-1.51
				c-0.41-0.4-1.07-0.4-1.49,0l-1.6,1.61v-1.68c-0.02-0.59-0.51-1.06-1.11-1.04c-0.57,0.02-1.02,0.47-1.04,1.04v1.68l-1.61-1.61
				c-0.42-0.41-1.1-0.4-1.51,0.03c-0.4,0.41-0.4,1.07,0,1.49l3.12,3.12v1.58l-1.6-1.61c-0.42-0.41-1.1-0.4-1.51,0.03
				c-0.4,0.41-0.4,1.07,0,1.49l3.12,3.12v7.43l-5.25-5.25v-4.41c0-0.59-0.48-1.07-1.07-1.07c-0.59,0-1.07,0.48-1.07,1.07v2.27
				l-1.12-1.12v-4.41c0-0.59-0.48-1.07-1.07-1.07c-0.59,0-1.07,0.48-1.07,1.07v2.27l-1.19-1.19c-0.42-0.41-1.1-0.4-1.51,0.03
				c-0.4,0.41-0.4,1.07,0,1.49l1.19,1.19h-2.28c-0.59,0-1.07,0.48-1.07,1.07c0,0.59,0.48,1.07,1.07,1.07h4.41l1.12,1.12h-2.27
				c-0.59,0-1.07,0.48-1.07,1.07c0,0.59,0.48,1.07,1.07,1.07h4.41l5.25,5.26h-7.43l-3.12-3.12c-0.42-0.41-1.1-0.4-1.51,0.03
				c-0.4,0.41-0.4,1.07,0,1.49l1.61,1.61H74.3l-3.12-3.12c-0.42-0.41-1.1-0.4-1.51,0.03c-0.4,0.41-0.4,1.07,0,1.49l1.61,1.61h-1.68
				c-0.59,0-1.07,0.48-1.07,1.07C68.52,280.22,69,280.7,69.6,280.7L69.6,280.7z M100.56,343.23h0.74l-0.71,0.71
				c-0.18,0.19-0.16,0.49,0.03,0.66c0.18,0.16,0.45,0.16,0.63,0l1.37-1.37h0.7l-0.71,0.71c-0.18,0.18-0.18,0.48,0,0.66c0,0,0,0,0,0
				c0.18,0.18,0.48,0.18,0.66,0l1.37-1.37h3.27l-2.31,2.31h-1.94c-0.26,0-0.47,0.21-0.47,0.47c0,0.26,0.21,0.47,0.47,0.47h1
				l-0.5,0.5h-1.94c-0.26,0-0.47,0.21-0.47,0.47c0,0.26,0.21,0.47,0.47,0.47l0,0h1l-0.52,0.52c-0.18,0.19-0.16,0.49,0.03,0.66
				c0.18,0.16,0.45,0.16,0.63,0l0.52-0.52v1c0,0.26,0.21,0.47,0.47,0.47c0.26,0,0.47-0.21,0.47-0.47l0,0v-1.95l0.5-0.49v1
				c0,0.26,0.21,0.47,0.47,0.47c0.26,0,0.47-0.21,0.47-0.47v-1.94l2.31-2.31v3.27l-1.37,1.37c-0.18,0.18-0.18,0.48,0,0.66
				c0.09,0.09,0.21,0.14,0.33,0.14c0.12,0,0.24-0.05,0.33-0.14l0.71-0.71v0.7l-1.37,1.37c-0.19,0.18-0.21,0.47-0.03,0.66
				c0.18,0.19,0.47,0.21,0.66,0.03c0.01-0.01,0.02-0.02,0.03-0.03l0.71-0.71v0.74c0,0.26,0.21,0.47,0.47,0.47
				c0.26,0,0.47-0.21,0.47-0.47v-0.74l0.71,0.71c0.19,0.18,0.49,0.16,0.66-0.03c0.16-0.18,0.16-0.45,0-0.63l-1.37-1.37v-0.7
				l0.71,0.71c0.19,0.18,0.49,0.16,0.66-0.03c0.16-0.18,0.16-0.45,0-0.63l-1.37-1.37v-3.27l2.31,2.31v1.93
				c0,0.26,0.21,0.47,0.47,0.47c0.26,0,0.47-0.21,0.47-0.47v-1l0.5,0.49v1.94c-0.01,0.26,0.19,0.48,0.45,0.5
				c0.26,0.01,0.48-0.19,0.5-0.45c0-0.01,0-0.03,0-0.04v-1l0.52,0.52c0.19,0.18,0.49,0.16,0.66-0.03c0.16-0.18,0.16-0.45,0-0.63
				l-0.52-0.52h1c0.26,0,0.47-0.21,0.47-0.47c0-0.26-0.21-0.47-0.47-0.47h-1.94l-0.5-0.5h1c0.26,0,0.47-0.21,0.47-0.47
				c0-0.26-0.21-0.47-0.47-0.47h-1.95l-2.31-2.31h3.27l1.37,1.37c0.19,0.18,0.49,0.16,0.66-0.03c0.16-0.18,0.16-0.45,0-0.63
				l-0.71-0.71h0.7l1.37,1.37c0.18,0.18,0.48,0.18,0.66,0c0.18-0.18,0.18-0.48,0-0.66c0,0,0,0,0,0l-0.71-0.71h0.74
				c0.26,0.01,0.48-0.19,0.5-0.45c0.01-0.26-0.19-0.48-0.45-0.5c-0.01,0-0.03,0-0.04,0h-0.74l0.71-0.71
				c0.19-0.18,0.21-0.47,0.03-0.66c-0.18-0.19-0.47-0.21-0.66-0.03c-0.01,0.01-0.02,0.02-0.03,0.03l-1.37,1.37h-0.7l0.71-0.71
				c0.19-0.18,0.21-0.47,0.03-0.66c-0.18-0.19-0.47-0.21-0.66-0.03c-0.01,0.01-0.02,0.02-0.03,0.03l-1.37,1.37h-3.27l2.31-2.31h1.94
				c0.26,0,0.47-0.21,0.47-0.47c0-0.26-0.21-0.47-0.47-0.47l0,0h-1l0.5-0.5h1.94c0.26,0,0.47-0.21,0.47-0.47
				c0-0.26-0.21-0.47-0.47-0.47h-1l0.52-0.52c0.18-0.19,0.16-0.49-0.03-0.66c-0.18-0.16-0.45-0.16-0.63,0l-0.52,0.52v-1
				c-0.01-0.26-0.23-0.46-0.5-0.45c-0.24,0.01-0.44,0.21-0.45,0.45v1.94l-0.5,0.49v-1c0-0.26-0.21-0.47-0.47-0.47
				c-0.26,0-0.47,0.21-0.47,0.47v1.94l-2.31,2.31v-3.27l1.37-1.37c0.18-0.19,0.16-0.49-0.03-0.66c-0.18-0.16-0.45-0.16-0.63,0
				l-0.71,0.71v-0.7l1.37-1.37c0.18-0.19,0.16-0.49-0.03-0.66c-0.18-0.16-0.45-0.16-0.63,0l-0.71,0.71v-0.74
				c0-0.26-0.21-0.47-0.47-0.47c-0.26,0-0.47,0.21-0.47,0.47v0.74l-0.71-0.71c-0.18-0.19-0.47-0.21-0.66-0.03
				c-0.19,0.18-0.21,0.47-0.03,0.66c0.01,0.01,0.02,0.02,0.03,0.03l1.37,1.37v0.7l-0.71-0.71c-0.18-0.19-0.47-0.21-0.66-0.03
				c-0.19,0.18-0.21,0.47-0.03,0.66c0.01,0.01,0.02,0.02,0.03,0.03l1.37,1.37v3.27l-2.31-2.31v-1.92c0-0.26-0.21-0.47-0.47-0.47
				c-0.26,0-0.47,0.21-0.47,0.47v1l-0.5-0.49v-1.94c0-0.26-0.21-0.47-0.47-0.47c-0.26,0-0.47,0.21-0.47,0.47v1l-0.52-0.52
				c-0.18-0.19-0.47-0.21-0.66-0.03c-0.19,0.18-0.21,0.47-0.03,0.66c0.01,0.01,0.02,0.02,0.03,0.03l0.52,0.52h-1
				c-0.26,0-0.47,0.21-0.47,0.47c0,0.26,0.21,0.47,0.47,0.47h1.94l0.5,0.5h-1c-0.26,0-0.47,0.21-0.47,0.47
				c0,0.26,0.21,0.47,0.47,0.47l0,0h1.94l2.31,2.31h-3.27l-1.37-1.37c-0.18-0.19-0.47-0.21-0.66-0.03
				c-0.19,0.18-0.21,0.47-0.03,0.66c0.01,0.01,0.02,0.02,0.03,0.03l0.71,0.71h-0.7l-1.37-1.37c-0.18-0.19-0.47-0.21-0.66-0.03
				c-0.19,0.18-0.21,0.47-0.03,0.66c0.01,0.01,0.02,0.02,0.03,0.03l0.71,0.71h-0.73c-0.26,0-0.47,0.21-0.47,0.47
				C100.1,343.02,100.31,343.23,100.56,343.23z M552.29,607.2h0.74l-0.71,0.71c-0.18,0.18-0.18,0.48,0,0.66c0,0,0,0,0,0
				c0.18,0.18,0.48,0.18,0.66,0l1.37-1.37h0.7l-0.71,0.71c-0.18,0.19-0.16,0.49,0.03,0.66c0.18,0.16,0.45,0.16,0.63,0l1.37-1.37
				h3.27l-2.31,2.31h-1.94c-0.26,0.01-0.46,0.23-0.45,0.5c0.01,0.24,0.21,0.44,0.45,0.45h1l-0.49,0.49h-1.94
				c-0.26,0.01-0.46,0.23-0.45,0.5c0.01,0.24,0.21,0.44,0.45,0.45h1l-0.52,0.52c-0.18,0.19-0.16,0.49,0.03,0.66
				c0.18,0.16,0.45,0.16,0.63,0l0.52-0.52v1c-0.01,0.26,0.19,0.48,0.45,0.5c0.26,0.01,0.48-0.19,0.5-0.45c0-0.01,0-0.03,0-0.04
				v-1.94l0.5-0.5v1c-0.01,0.26,0.19,0.48,0.45,0.5c0.26,0.01,0.48-0.19,0.5-0.45c0-0.01,0-0.03,0-0.04v-1.94l2.31-2.31v3.27
				l-1.37,1.37c-0.18,0.18-0.18,0.48,0,0.66c0.09,0.09,0.21,0.14,0.33,0.14c0.12,0,0.24-0.05,0.33-0.14l0.71-0.71v0.7l-1.37,1.37
				c-0.18,0.19-0.16,0.49,0.03,0.66c0.18,0.16,0.45,0.16,0.63,0l0.71-0.71v0.74c-0.01,0.26,0.19,0.48,0.45,0.5
				c0.26,0.01,0.48-0.19,0.5-0.45c0-0.01,0-0.03,0-0.04v-0.74l0.71,0.71c0.19,0.18,0.49,0.16,0.66-0.03c0.16-0.18,0.16-0.45,0-0.63
				l-1.37-1.37v-0.7l0.71,0.71c0.19,0.18,0.49,0.16,0.66-0.03c0.16-0.18,0.16-0.45,0-0.63l-1.37-1.37v-3.27l2.31,2.31v1.94
				c0,0.26,0.21,0.47,0.47,0.47s0.47-0.21,0.47-0.47v-1l0.49,0.5v1.94c-0.01,0.26,0.19,0.48,0.45,0.5c0.26,0.01,0.48-0.19,0.5-0.45
				c0-0.01,0-0.03,0-0.04v-1l0.52,0.52c0.19,0.18,0.49,0.16,0.66-0.03c0.16-0.18,0.16-0.45,0-0.63l-0.52-0.52h1
				c0.26,0.01,0.48-0.19,0.5-0.45c0.01-0.26-0.19-0.48-0.45-0.5c-0.01,0-0.03,0-0.04,0h-1.94l-0.5-0.49h1
				c0.26,0.01,0.48-0.19,0.5-0.45c0.01-0.26-0.19-0.48-0.45-0.5c-0.01,0-0.03,0-0.04,0h-1.94l-2.31-2.31h3.27l1.37,1.37
				c0.19,0.18,0.49,0.16,0.66-0.03c0.16-0.18,0.16-0.45,0-0.63l-0.71-0.71h0.7l1.37,1.37c0.18,0.18,0.48,0.18,0.66,0
				c0.18-0.18,0.18-0.48,0-0.66c0,0,0,0,0,0l-0.71-0.71h0.74c0.26,0,0.47-0.21,0.47-0.47s-0.21-0.47-0.47-0.47h-0.74l0.71-0.71
				c0.18-0.19,0.16-0.49-0.03-0.66c-0.18-0.16-0.45-0.16-0.63,0l-1.37,1.37h-0.7l0.71-0.71c0.18-0.19,0.16-0.49-0.03-0.66
				c-0.18-0.16-0.45-0.16-0.63,0l-1.37,1.37h-3.27l2.31-2.31h1.94c0.26,0,0.47-0.21,0.47-0.47s-0.21-0.47-0.47-0.47h-1l0.5-0.5h1.94
				c0.26,0,0.47-0.21,0.47-0.47s-0.21-0.47-0.47-0.47h-1l0.52-0.52c0.18-0.19,0.16-0.49-0.03-0.66c-0.18-0.16-0.45-0.16-0.63,0
				l-0.52,0.52v-1c-0.01-0.26-0.23-0.46-0.5-0.45c-0.24,0.01-0.44,0.21-0.45,0.45v1.94l-0.49,0.5v-1c0-0.26-0.21-0.47-0.47-0.47
				s-0.47,0.21-0.47,0.47v1.94l-2.31,2.31v-3.27l1.37-1.37c0.18-0.19,0.16-0.49-0.03-0.66c-0.18-0.16-0.45-0.16-0.63,0l-0.71,0.71
				v-0.7l1.37-1.37c0.18-0.19,0.16-0.49-0.03-0.66c-0.18-0.16-0.45-0.16-0.63,0l-0.71,0.71v-0.74c-0.01-0.26-0.23-0.46-0.5-0.45
				c-0.24,0.01-0.44,0.21-0.45,0.45v0.74l-0.71-0.71c-0.19-0.18-0.49-0.16-0.66,0.03c-0.16,0.18-0.16,0.45,0,0.63l1.37,1.37v0.7
				l-0.71-0.71c-0.19-0.18-0.49-0.16-0.66,0.03c-0.16,0.18-0.16,0.45,0,0.63l1.37,1.37v3.27l-2.31-2.31v-1.94
				c-0.01-0.26-0.23-0.46-0.5-0.45c-0.24,0.01-0.44,0.21-0.45,0.45v1l-0.5-0.5v-1.94c-0.01-0.26-0.23-0.46-0.5-0.45
				c-0.24,0.01-0.44,0.21-0.45,0.45v1l-0.52-0.52c-0.19-0.18-0.49-0.16-0.66,0.03c-0.16,0.18-0.16,0.45,0,0.63l0.52,0.52h-1
				c-0.26,0-0.47,0.21-0.47,0.47s0.21,0.47,0.47,0.47h1.94l0.49,0.5h-1c-0.26,0-0.47,0.21-0.47,0.47s0.21,0.47,0.47,0.47h1.94
				l2.31,2.32h-3.27l-1.37-1.37c-0.19-0.18-0.49-0.16-0.66,0.03c-0.16,0.18-0.16,0.45,0,0.63l0.71,0.71h-0.7l-1.37-1.37
				c-0.19-0.18-0.49-0.16-0.66,0.03c-0.16,0.18-0.16,0.45,0,0.63l0.71,0.71h-0.74c-0.26,0-0.47,0.21-0.47,0.47
				C551.83,606.99,552.04,607.19,552.29,607.2z M633.1,507.67c5.26,0,5.25-8.16,0-8.16S627.85,507.67,633.1,507.67z M71.06,327.7
				c5.26,0,5.25-8.16,0-8.16S65.81,327.7,71.06,327.7z M97.18,780.52c5.26,0,5.25-8.16,0-8.16S91.93,780.52,97.18,780.52z
				 M654.87,506.67c0.9-0.03,1.61-0.79,1.58-1.69c-0.03-0.86-0.72-1.55-1.58-1.58c-0.9,0.03-1.61,0.79-1.58,1.69
				C653.33,505.95,654.01,506.64,654.87,506.67z M420.84,307.83c0.9-0.04,1.6-0.8,1.56-1.7c-0.04-0.85-0.72-1.53-1.56-1.56
				c-0.9,0.04-1.6,0.8-1.56,1.7C419.31,307.12,419.99,307.8,420.84,307.83z M214.74,409.43c0.9-0.02,1.61-0.77,1.59-1.67
				c-0.02-0.87-0.72-1.57-1.59-1.59c-0.9,0.02-1.61,0.77-1.59,1.67C213.17,408.71,213.87,409.41,214.74,409.43z M76.86,788.24
				c0.9-0.03,1.61-0.79,1.58-1.69c-0.03-0.86-0.72-1.55-1.58-1.58c-0.9,0.03-1.61,0.79-1.58,1.69
				C75.32,787.52,76,788.21,76.86,788.24z M208.93,579.24c0.9-0.02,1.61-0.77,1.59-1.67c-0.02-0.87-0.72-1.57-1.59-1.59
				c-0.9,0.02-1.61,0.77-1.59,1.67C207.36,578.51,208.06,579.21,208.93,579.24z M507.92,379.95c5.26,0,5.25-8.16,0-8.16
				C502.67,371.79,502.67,379.95,507.92,379.95z M220.55,233.36c5.26,0,5.25-8.16,0-8.16S215.3,233.36,220.55,233.36z
				 M513.72,195.62c5.26,0,5.25-8.16,0-8.16C508.47,187.46,508.47,195.62,513.72,195.62z M139.27,150.64c5.26,0,5.25-8.16,0-8.16
				S134.02,150.64,139.27,150.64z M351.17,153.54c5.26,0,5.25-8.16,0-8.16S345.92,153.54,351.17,153.54z M634.19,183.02
				c0.9-0.03,1.61-0.79,1.58-1.69c-0.03-0.86-0.72-1.55-1.58-1.58c-0.9,0.03-1.61,0.79-1.58,1.69
				C632.64,182.3,633.33,182.99,634.19,183.02z M581.94,302.03c0.9-0.03,1.61-0.79,1.58-1.69c-0.03-0.86-0.72-1.55-1.58-1.58
				c-0.9,0.03-1.61,0.79-1.58,1.69C580.39,301.31,581.08,302,581.94,302.03z M49.29,589.4c0.9-0.03,1.61-0.79,1.58-1.69
				c-0.03-0.86-0.72-1.55-1.58-1.58c-0.9,0.03-1.61,0.79-1.58,1.69C47.74,588.68,48.43,589.37,49.29,589.4z M474.54,962.4
				c0.9-0.03,1.61-0.79,1.58-1.69c-0.03-0.86-0.72-1.55-1.58-1.58c-0.9,0.03-1.61,0.79-1.58,1.69
				C472.99,961.68,473.68,962.37,474.54,962.4z M671.95,771.14c1.05-0.03,1.88-0.91,1.84-1.97c-0.03-1-0.84-1.81-1.84-1.84
				c-1.05,0.03-1.88,0.91-1.84,1.97C670.14,770.3,670.95,771.1,671.95,771.14z M313.46,840.26c0.75-0.02,1.34-0.65,1.32-1.4
				c-0.02-0.72-0.6-1.3-1.32-1.32c-0.75,0.02-1.34,0.65-1.32,1.4C312.16,839.65,312.74,840.24,313.46,840.26z M586.32,930.24
				c0.75-0.03,1.34-0.66,1.31-1.41c-0.03-0.71-0.6-1.28-1.31-1.31c-0.75,0.03-1.34,0.66-1.31,1.41
				C585.04,929.64,585.61,930.21,586.32,930.24z"/>
		</g>
	</g>
</g>
</svg>
