<?xml version="1.0" encoding="utf-8"?>
<!-- Generator: Adobe Illustrator 25.0.1, SVG Export Plug-In . SVG Version: 6.00 Build 0)  -->
<svg version="1.1" id="Layer_1" xmlns="http://www.w3.org/2000/svg" xmlns:xlink="http://www.w3.org/1999/xlink" x="0px" y="0px"
	 viewBox="0 0 100 100" style="enable-background:new 0 0 100 100;" xml:space="preserve">
<style type="text/css">
	.st0{fill:#FFC10E;}
	.st1{fill:#FFFFFF;}
</style>
<circle class="st0" cx="50.3" cy="50.1" r="40"/>
<g>
	<path class="st1" d="M59.5,31.7H40.7c-1.3,0-2.3,1-2.3,2.3v18.6c0,1.3,1,2.3,2.3,2.3h8.7c-0.1,2.2-1,4.6-2.3,6.8
		c-1.5,2.4-4.7,5.1-4.8,5.1c-0.3,0.2-0.4,0.5-0.4,0.9c0,0.3,0.1,0.5,0.3,0.8l6,6.8c0,0,0.3,0.3,0.5,0.4c0.3,0.1,0.6,0.1,0.8-0.1
		c10.5-8,12-18.1,12.2-23.6c0,0,0-17.9,0-17.9C61.8,32.7,60.8,31.7,59.5,31.7"/>
</g>
</svg>
