<?xml version="1.0" encoding="utf-8"?>
<!-- Generator: Adobe Illustrator 25.0.1, SVG Export Plug-In . SVG Version: 6.00 Build 0)  -->
<svg version="1.1" id="Layer_1" xmlns="http://www.w3.org/2000/svg" xmlns:xlink="http://www.w3.org/1999/xlink" x="0px" y="0px"
	 viewBox="0 0 100 100" style="enable-background:new 0 0 100 100;" xml:space="preserve">
<style type="text/css">
	.st0{fill:#5EA9DD;}
</style>
<path class="st0" d="M90,50c0,22.1-17.9,40-40,40S10,72.1,10,50s17.9-40,40-40S90,27.9,90,50z M71.2,38.5c-0.8,0.2-1.7,0.4-2.5,0.5
	c0.9-0.6,1.7-1.3,2.3-2.1c0.7-0.8,1.1-1.7,1.5-2.8c-0.1,0-0.2,0.1-0.2,0.1c-1.6,0.9-3.3,1.6-5.2,2c-0.2,0-0.3,0-0.4-0.1
	c-2.8-2.8-7.1-3.5-10.6-1.5c-2.8,1.6-4.3,4.1-4.6,7.3c-0.1,0.8,0,1.5,0.2,2.3c0,0.1,0,0.2-0.1,0.2c-0.9-0.1-1.9-0.2-2.8-0.3
	c-3.1-0.5-6.1-1.6-8.8-3.3c-2.5-1.5-4.6-3.3-6.4-5.5c-0.1-0.1-0.1-0.1-0.2,0c-1,1.8-1.3,3.7-1,5.7c0.4,2.5,1.6,4.4,3.6,5.9
	c0,0,0.1,0,0.1,0.1c0,0,0,0,0,0c0,0-0.1,0-0.1,0c-1.3-0.1-2.4-0.4-3.6-1c-0.2-0.1-0.2-0.1-0.2,0.1c0,0.6,0,1.2,0.2,1.7
	c0.9,3.6,3.1,5.8,6.6,6.8c0.1,0,0.1,0,0.2,0.1c-0.1,0-0.1,0-0.1,0c-1.2,0.3-2.3,0.3-3.5,0.1c-0.2,0-0.2,0-0.2,0.2
	c1.3,3.3,3.7,5.3,7.2,5.9c0.3,0,0.6,0.1,1,0.1c-3.9,2.9-8.2,4.1-13.1,3.7c0.1,0.1,0.1,0.1,0.1,0.1c0.9,0.6,1.9,1.1,2.9,1.6
	c4.7,2.2,9.6,2.8,14.7,2c5.5-0.8,10.3-3.3,14.1-7.4c4.8-5.2,7.1-11.4,6.9-18.5c0-0.1,0-0.2,0.2-0.3c1.3-1,2.5-2.2,3.5-3.5
	c0.2-0.3,0.5-0.6,0.7-1C72.8,37.9,72,38.2,71.2,38.5z"/>
</svg>
